0
SECTION
2
HEADER
9
$LTSCALE
40
0.5
9
$LIMMIN
10
0
20
0
9
$LIMMAX
10
400
20
270
9
$EXTMIN
10
-17.8
20
-22.8
9
$EXTMAX
10
452.4501
20
323.502
9
$SNAPMODE
70
1
9
$SNAPUNIT
10
0.1
20
0.1
9
$GRIDMODE
70
0
9
$GRIDUNIT
10
10
20
10
9
$ORTHOMODE
70
0
9
$TEXTSTYLE
7
txt
9
$CLAYER
8
8
9
$CECOLOR
62
7
9
$CELTYPE
6
CONTINUOUS
9
$OSMODE
70
0
0
ENDSEC
0
SECTION
2
TABLES
0
TABLE
2
STYLE
70
1
0
STYLE
2
txt
70
0
40
0
41
1
50
0
71
0
42
0
3
txt
4

0
ENDTAB
0
TABLE
2
LTYPE
70
9
0
LTYPE
2
CONTINUOUS
70
0
3
Ausgezogene Linie
72
65
73
0
40
0
0
LTYPE
2
GESTRICHELT
70
0
3
__ __ __ __ __ __ __ __ __ __ __ __ __ __ __
72
65
73
2
40
0.75
49
0.5
49
-0.25
0
LTYPE
2
VERDECKT
70
0
3
_ _ _ _ _ _ _ _ _ _ _ _ _ _ _ _ _ _ _ _ _ _ 
72
65
73
2
40
0.375
49
0.25
49
-0.125
0
LTYPE
2
MITTE
70
0
3
____ _ ____ _ ____ _ ____ _ ____ _ ____ _ __
72
65
73
4
40
2
49
1.25
49
-0.25
49
0.25
49
-0.25
0
LTYPE
2
PHANTOM
70
0
3
_____ _ _ _____ _ _ _____ _ _ _____ _ _ ____
72
65
73
6
40
2.5
49
1.25
49
-0.25
49
0.25
49
-0.25
49
0.25
49
-0.25
0
LTYPE
2
PUNKT
70
0
3
............................................
72
65
73
2
40
0.25
49
0
49
-0.25
0
LTYPE
2
STRICHPUNKT
70
0
3
__ . __ . __ . __ . __ . __ . __ . __ . __ .
72
65
73
4
40
1
49
0.5
49
-0.25
49
0
49
-0.25
0
LTYPE
2
RAND
70
0
3
__ __ . __ __ . __ __ . __ __ . __ __ . __ _
72
65
73
6
40
1.75
49
0.5
49
-0.25
49
0.5
49
-0.25
49
0
49
-0.25
0
LTYPE
2
GETRENNT
70
0
3
__ . . __ . . __ . . __ . . __ . . __ . . __
72
65
73
6
40
1.25
49
0.5
49
-0.25
49
0
49
-0.25
49
0
49
-0.25
0
LTYPE
2
PUNKTE
70
0
3
schliess
72
65
73
2
40
0.1
49
0.05
49
-0.05
0
ENDTAB
0
TABLE
2
LAYER
70
10
0
LAYER
2
1
70
0
62
7
6
CONTINUOUS
0
LAYER
2
2
70
0
62
7
6
CONTINUOUS
0
LAYER
2
3
70
0
62
7
6
CONTINUOUS
0
LAYER
2
4
70
0
62
7
6
CONTINUOUS
0
LAYER
2
5
70
0
62
7
6
CONTINUOUS
0
LAYER
2
6
70
0
62
7
6
CONTINUOUS
0
LAYER
2
7
70
0
62
7
6
CONTINUOUS
0
LAYER
2
8
70
0
62
7
6
CONTINUOUS
0
LAYER
2
9
70
0
62
7
6
CONTINUOUS
0
LAYER
2
10
70
0
62
7
6
CONTINUOUS
0
ENDTAB
0
ENDSEC
0
SECTION
2
ENTITIES
0
LINE
8
5
62
7
10
406.2
20
226.9
11
406.2
21
225.4
0
LINE
8
5
62
7
10
327.5
20
218.1
11
406.2
21
218.1
0
LINE
8
4
62
1
10
176.8
20
15
11
207
21
15
0
LINE
8
4
62
1
10
178.05
20
7.699997
11
205.75
21
7.699997
0
LINE
8
4
62
1
10
178.05
20
10.09999
11
205.75
21
10.09999
0
LINE
8
4
62
6
10
236.9
20
222.4332
11
193.8
21
222.4332
0
LINE
8
1
62
5
10
187.1
20
193.4
11
215.1
21
193.4
0
LINE
8
1
62
5
10
215.1
20
179.4
11
187.1
21
179.4
0
LINE
8
1
62
5
10
182.1
20
215.4
11
226.1
21
215.4
0
LINE
8
1
62
5
10
180.1
20
217.4
11
228.1
21
217.4
0
LINE
8
1
62
5
10
196.76
20
201.4
11
211.44
21
201.4
0
LINE
8
1
62
5
10
199.7601
20
151.8422
11
203.9925
21
164.1339
0
LINE
8
1
62
5
10
191.0808
20
169.6374
11
206.2091
21
164.4283
0
LINE
8
1
62
5
10
214.7
20
125.2
11
199.7
21
125.2
0
LINE
8
1
62
5
10
216.1
20
123.8
11
198.3
21
123.8
0
LINE
8
1
62
5
10
214.7
20
133.8
11
199.7
21
133.8
0
LINE
8
5
62
7
10
286.5
20
262
11
1.5
21
262
0
LINE
8
4
62
7
10
216.1
20
123.8
11
202.6
21
123.8
0
LINE
8
4
62
7
10
202.6
20
121.5
11
213.8
21
121.5
0
LINE
8
1
62
5
10
206.2091
20
164.4283
11
201
21
149.3
0
ARC
8
1
62
1
10
206.444
20
179.2971
40
5.880525
50
80.2091
51
133.9329
0
ARC
8
1
62
1
10
206.1308
20
182.6598
40
3.866445
50
82.37218
51
166.9624
0
ARC
8
1
62
1
10
204.3509
20
188.7506
40
5.584057
50
249.1565
51
305.6315
0
ARC
8
1
62
1
10
206.444
20
179.2971
40
5.880525
50
80.2091
51
133.9329
0
ARC
8
1
62
1
10
206.1308
20
182.6598
40
3.866445
50
82.37218
51
166.9624
0
ARC
8
1
62
1
10
204.3509
20
188.7506
40
5.584057
50
249.1565
51
305.6315
0
LINE
8
4
62
7
10
4
20
215
11
4
21
116.7
0
LINE
8
4
62
7
10
11.3
20
124
11
11.3
21
215
0
ARC
8
4
62
6
10
102.5
20
129
40
17.7
50
89.99999
51
180
0
ARC
8
4
62
6
10
158.8
20
128.9
40
17.7
50
6.832453e-07
51
90
0
LINE
8
1
62
5
10
47
20
137
11
47
21
125
0
LINE
8
1
62
5
10
67
20
125
11
67
21
137
0
LINE
8
1
62
5
10
34.33646
20
131.6802
11
31.99207
21
137.2032
0
LINE
8
1
62
5
10
43.2071
20
133.816
11
39.69053
21
142.1005
0
LINE
8
4
62
7
10
88.5
20
87.4
11
104.8
21
87.4
0
LINE
8
4
62
7
10
102.5
20
89.7
11
88.5
21
89.7
0
LINE
8
4
62
6
10
102.5
20
129
11
84.8
21
129
0
LINE
8
4
62
7
10
96.5
20
7.699997
11
112.8
21
7.699997
0
LINE
8
4
62
7
10
102.5
20
15
11
96.5
21
15
0
LINE
8
4
62
7
10
102.5
20
52.7
11
97.5
21
52.7
0
LINE
8
4
62
7
10
97.5
20
50.4
11
102.5
21
50.4
0
LINE
8
4
62
7
10
102.5
20
124
11
97.5
21
124
0
LINE
8
4
62
7
10
97.5
20
121.7
11
102.5
21
121.7
0
LINE
8
1
62
5
10
68.3
20
58.1
11
102.5
21
58.1
0
ARC
8
4
62
6
10
66
20
82.40001
40
17.7
50
180
51
270
0
LINE
8
4
62
7
10
11.3
20
15
11
11.3
21
116.5
0
LINE
8
4
62
7
10
4
20
116.5
11
4
21
7.699997
0
LINE
8
1
62
5
10
13.7429
20
65.81127
11
20.5048
21
80.31219
0
LINE
8
1
62
5
10
35.00572
20
73.55032
11
28.24383
21
59.04938
0
LINE
8
1
62
5
10
16.40076
20
66.77865
11
21.89479
21
78.56065
0
LINE
8
1
62
5
10
27.27645
20
61.70723
11
32.77049
21
73.48924
0
LINE
8
4
62
1
10
23.8
20
15
11
54.00002
21
15
0
LINE
8
4
62
1
10
25.05
20
7.699997
11
52.75002
21
7.699997
0
LINE
8
4
62
1
10
25.05
20
10.09999
11
52.75002
21
10.09999
0
LINE
8
1
62
5
10
58.3
20
16.1
11
40.3
21
16.1
0
LINE
8
1
62
5
10
58.3
20
16.1
11
40.3
21
22.1
0
LINE
8
1
62
5
10
58.3
20
22.1
11
40.3
21
16.1
0
LINE
8
1
62
5
10
40.3
20
22.1
11
58.3
21
22.1
0
LINE
8
1
62
5
10
33.9028
20
39.61254
11
33.9028
21
32.11254
0
LINE
8
1
62
5
10
24.9028
20
32.11254
11
24.9028
21
39.61254
0
LINE
8
1
62
5
10
18.3
20
51.1
11
18.3
21
33.1
0
LINE
8
1
62
5
10
18.3
20
51.1
11
12.3
21
33.1
0
LINE
8
1
62
5
10
12.3
20
51.1
11
18.3
21
33.1
0
LINE
8
1
62
5
10
12.3
20
33.1
11
12.3
21
51.1
0
ARC
8
1
62
1
10
21.32676
20
23.31269
40
5.584057
50
181.2384
51
237.7134
0
ARC
8
1
62
1
10
16.244
20
23.192
40
0.4999999
50
53.13009
51
180
0
ARC
8
1
62
1
10
12.5081
20
19.31507
40
5.880525
50
352.937
51
46.66079
0
ARC
8
1
62
1
10
15.38615
20
21.08209
40
3.866445
50
319.9075
51
44.49772
0
ARC
8
1
62
1
10
17.44401
20
22.892
40
1.140175
50
52.12502
51
142.125
0
ARC
8
1
62
1
10
12.67595
20
23.50347
40
2.792028
50
299.3616
51
355.8366
0
ARC
8
1
62
1
10
15.21094
20
23.31353
40
0.25
50
357.075
51
123.9449
0
ARC
8
1
62
1
10
16.97754
20
21.28228
40
2.940262
50
130.4142
51
184.138
0
ARC
8
1
62
1
10
15.58548
20
22.23806
40
1.933222
50
132.5773
51
217.1675
0
ARC
8
1
62
1
10
14.60406
20
23.19435
40
0.5700877
50
34.95
51
124.95
0
ARC
8
1
62
1
10
18.28081
20
26.89977
40
2.792028
50
240.9032
51
297.3781
0
ARC
8
1
62
1
10
17.04935
20
24.67587
40
0.25
50
112.7949
51
239.6648
0
ARC
8
1
62
1
10
17.77898
20
22.08463
40
2.940262
50
52.60177
51
106.3256
0
ARC
8
1
62
1
10
17.74324
20
23.77285
40
1.933222
50
19.57227
51
104.1625
0
ARC
8
1
62
1
10
17.48185
20
25.11797
40
0.5700877
50
111.7898
51
201.7898
0
CIRCLE
8
1
62
1
10
16.3
20
25.6
40
0.5
0
CIRCLE
8
1
62
1
10
14.8
20
24.6
40
0.5
0
CIRCLE
8
1
62
1
10
15.8
20
24.6
40
0.5
0
LINE
8
4
62
7
10
23.8
20
15
11
11.3
21
15
0
LINE
8
4
62
7
10
4
20
7.699997
11
23.8
21
7.699997
0
LINE
8
4
62
7
10
25.05
20
7.699997
11
23.8
21
7.699997
0
LINE
8
4
62
7
10
23.8
20
10.09999
11
25.05
21
10.09999
0
LINE
8
4
62
7
10
25.05
20
10.09999
11
25.05
21
7.699997
0
LINE
8
4
62
7
10
23.8
20
15
11
23.8
21
10.09999
0
LINE
8
1
62
5
10
40.3
20
16.1
11
40.3
21
22.1
0
LINE
8
1
62
5
10
12.3
20
30.1
11
40.3
21
30.1
0
LINE
8
1
62
5
10
40.3
20
16.1
11
12.3
21
16.1
0
LINE
8
1
62
5
10
12.3
20
16.1
11
12.3
21
30.1
0
LINE
8
1
62
5
10
40.3
20
30.1
11
40.3
21
16.1
0
LINE
8
1
62
5
10
24.9028
20
32.11254
11
33.9028
21
32.11254
0
LINE
8
1
62
5
10
18.3
20
33.1
11
12.3
21
33.1
0
ARC
8
1
62
1
10
21.32676
20
23.31269
40
5.584057
50
181.2384
51
237.7134
0
ARC
8
1
62
1
10
16.244
20
23.192
40
0.4999999
50
53.13009
51
180
0
ARC
8
1
62
1
10
12.5081
20
19.31507
40
5.880525
50
352.937
51
46.66079
0
ARC
8
1
62
1
10
15.38615
20
21.08209
40
3.866445
50
319.9075
51
44.49772
0
ARC
8
1
62
1
10
17.44401
20
22.892
40
1.140175
50
52.12502
51
142.125
0
ARC
8
1
62
1
10
12.67595
20
23.50347
40
2.792028
50
299.3616
51
355.8366
0
ARC
8
1
62
1
10
15.21094
20
23.31353
40
0.25
50
357.075
51
123.9449
0
ARC
8
1
62
1
10
16.97754
20
21.28228
40
2.940262
50
130.4142
51
184.138
0
ARC
8
1
62
1
10
15.58548
20
22.23806
40
1.933222
50
132.5773
51
217.1675
0
ARC
8
1
62
1
10
14.60406
20
23.19435
40
0.5700877
50
34.95
51
124.95
0
ARC
8
1
62
1
10
18.28081
20
26.89977
40
2.792028
50
240.9032
51
297.3781
0
ARC
8
1
62
1
10
17.04935
20
24.67587
40
0.25
50
112.7949
51
239.6648
0
ARC
8
1
62
1
10
17.77898
20
22.08463
40
2.940262
50
52.60177
51
106.3256
0
ARC
8
1
62
1
10
17.74324
20
23.77285
40
1.933222
50
19.57227
51
104.1625
0
ARC
8
1
62
1
10
17.48185
20
25.11797
40
0.5700877
50
111.7898
51
201.7898
0
CIRCLE
8
1
62
1
10
16.3
20
25.6
40
0.5
0
CIRCLE
8
1
62
1
10
14.8
20
24.6
40
0.5
0
CIRCLE
8
1
62
1
10
15.8
20
24.6
40
0.5
0
LINE
8
1
62
5
10
28.24383
20
59.04938
11
13.7429
21
65.81127
0
LINE
8
1
62
5
10
27.27645
20
61.70723
11
16.40076
21
66.77865
0
LINE
8
1
62
5
10
27.27645
20
61.70723
11
28.24383
21
59.04938
0
LINE
8
1
62
5
10
16.40076
20
66.77865
11
13.7429
21
65.81127
0
ARC
8
1
62
5
10
26.4028
20
39.61254
40
1.5
50
90
51
180
0
ARC
8
1
62
5
10
32.4028
20
39.61254
40
1.5
50
0
51
90
0
LINE
8
1
62
5
10
26.4028
20
41.11254
11
32.4028
21
41.11254
0
LINE
8
1
62
5
10
12.3
20
51.1
11
18.3
21
51.1
0
LINE
8
4
62
7
10
66
20
64.7
11
66
21
19.99999
0
LINE
8
4
62
7
10
68.3
20
19.99999
11
68.3
21
50.39999
0
LINE
8
1
62
5
10
65.1
20
46.53668
11
65.1
21
30.93667
0
LINE
8
1
62
5
10
56.7
20
46.53668
11
65.1
21
30.93667
0
LINE
8
1
62
5
10
65.1
20
46.53668
11
56.7
21
30.93667
0
LINE
8
1
62
5
10
56.7
20
30.93667
11
56.7
21
46.53668
0
LINE
8
4
62
7
10
52.75002
20
7.699997
11
54.00002
21
7.699997
0
LINE
8
4
62
7
10
52.75002
20
10.09999
11
54.00002
21
10.09999
0
LINE
8
4
62
7
10
52.75002
20
10.09999
11
52.75002
21
7.699997
0
LINE
8
4
62
7
10
54.00002
20
10.09999
11
54.00002
21
15
0
LINE
8
4
62
7
10
54
20
7.699997
11
76.3
21
7.699997
0
LINE
8
4
62
7
10
76.3
20
15
11
68.3
21
15
0
LINE
8
4
62
7
10
68.3
20
15
11
68.3
21
20
0
LINE
8
4
62
7
10
66
20
20
11
66
21
15
0
LINE
8
4
62
7
10
66
20
15
11
54
21
15
0
LINE
8
1
62
5
10
58.3
20
22.1
11
58.3
21
16.1
0
LINE
8
1
62
5
10
65.1
20
30.93667
11
56.7
21
30.93667
0
LINE
8
4
62
1
10
96.5
20
15
11
76.29999
21
15
0
LINE
8
4
62
7
10
95.25
20
7.699997
11
96.5
21
7.699997
0
LINE
8
4
62
7
10
96.5
20
10.09999
11
95.25
21
10.09999
0
LINE
8
4
62
7
10
95.25
20
10.09999
11
95.25
21
7.699997
0
LINE
8
4
62
7
10
96.5
20
15
11
96.5
21
10.09999
0
LINE
8
4
62
7
10
77.54999
20
7.699997
11
76.29999
21
7.699997
0
LINE
8
4
62
1
10
95.25
20
7.699997
11
77.54999
21
7.699997
0
LINE
8
4
62
1
10
95.25
20
10.09999
11
77.54999
21
10.09999
0
LINE
8
4
62
7
10
77.54999
20
10.09999
11
76.29999
21
10.09999
0
LINE
8
4
62
7
10
77.54999
20
10.09999
11
77.54999
21
7.699997
0
LINE
8
4
62
7
10
76.29999
20
10.09999
11
76.29999
21
15
0
LINE
8
2
62
5
10
89.4
20
17.3
11
89.4
21
15
0
LINE
8
2
62
5
10
83.19999
20
17.3
11
83.19999
21
15
0
LINE
8
2
62
5
10
89.4
20
17.8
11
83.19999
21
17.8
0
LINE
8
2
62
5
10
88.78001
20
20.908
11
83.82
21
20.908
0
POLYLINE
8
2
62
5
70
4
75
6
66
1
40
0
41
0
0
VERTEX
8
2
10
89.4
20
17.8
70
16
0
VERTEX
8
2
10
89.9
20
21.8
70
16
0
VERTEX
8
2
10
89.9
20
24.06
70
16
0
VERTEX
8
2
10
89.4
20
26.06
70
16
0
VERTEX
8
2
10
88.9
20
27.06
70
16
0
VERTEX
8
2
10
87.4
20
28.56
70
16
0
VERTEX
8
2
10
86.3
20
28.6
70
16
0
VERTEX
8
2
10
89.4
20
17.8
70
8
0
VERTEX
8
2
10
89.56488
20
19.17062
70
8
0
VERTEX
8
2
10
89.68776
20
20.3031
70
8
0
VERTEX
8
2
10
89.77354
20
21.22835
70
8
0
VERTEX
8
2
10
89.82708
20
21.97729
70
8
0
VERTEX
8
2
10
89.85329
20
22.58084
70
8
0
VERTEX
8
2
10
89.85703
20
23.06992
70
8
0
VERTEX
8
2
10
89.8432
20
23.47544
70
8
0
VERTEX
8
2
10
89.81667
20
23.82833
70
8
0
VERTEX
8
2
10
89.78167
20
24.15447
70
8
0
VERTEX
8
2
10
89.73985
20
24.45966
70
8
0
VERTEX
8
2
10
89.69216
20
24.74465
70
8
0
VERTEX
8
2
10
89.63958
20
25.01021
70
8
0
VERTEX
8
2
10
89.58311
20
25.25709
70
8
0
VERTEX
8
2
10
89.5237
20
25.48607
70
8
0
VERTEX
8
2
10
89.46234
20
25.69789
70
8
0
VERTEX
8
2
10
89.4
20
25.89333
70
8
0
VERTEX
8
2
10
89.33693
20
26.07375
70
8
0
VERTEX
8
2
10
89.27044
20
26.24294
70
8
0
VERTEX
8
2
10
89.19712
20
26.40529
70
8
0
VERTEX
8
2
10
89.11354
20
26.56521
70
8
0
VERTEX
8
2
10
89.01629
20
26.72707
70
8
0
VERTEX
8
2
10
88.90195
20
26.89528
70
8
0
VERTEX
8
2
10
88.76711
20
27.07424
70
8
0
VERTEX
8
2
10
88.60833
20
27.26833
70
8
0
VERTEX
8
2
10
88.42267
20
27.47943
70
8
0
VERTEX
8
2
10
88.20899
20
27.69929
70
8
0
VERTEX
8
2
10
87.96659
20
27.91717
70
8
0
VERTEX
8
2
10
87.69479
20
28.12229
70
8
0
VERTEX
8
2
10
87.39292
20
28.30389
70
8
0
VERTEX
8
2
10
87.06029
20
28.45122
70
8
0
VERTEX
8
2
10
86.69621
20
28.55351
70
8
0
VERTEX
8
2
10
86.3
20
28.6
70
8
0
SEQEND
8
2
0
POLYLINE
8
2
62
5
70
4
75
6
66
1
40
0
41
0
0
VERTEX
8
2
10
83.19999
20
17.8
70
16
0
VERTEX
8
2
10
82.69999
20
21.8
70
16
0
VERTEX
8
2
10
82.69999
20
24.06
70
16
0
VERTEX
8
2
10
83.19999
20
26.06
70
16
0
VERTEX
8
2
10
83.69999
20
27.06
70
16
0
VERTEX
8
2
10
85.19999
20
28.56
70
16
0
VERTEX
8
2
10
86.3
20
28.6
70
16
0
VERTEX
8
2
10
83.19999
20
17.8
70
8
0
VERTEX
8
2
10
83.03511
20
19.17062
70
8
0
VERTEX
8
2
10
82.91223
20
20.3031
70
8
0
VERTEX
8
2
10
82.82645
20
21.22835
70
8
0
VERTEX
8
2
10
82.77291
20
21.97729
70
8
0
VERTEX
8
2
10
82.7467
20
22.58084
70
8
0
VERTEX
8
2
10
82.74296
20
23.06992
70
8
0
VERTEX
8
2
10
82.75679
20
23.47544
70
8
0
VERTEX
8
2
10
82.78332
20
23.82833
70
8
0
VERTEX
8
2
10
82.81832
20
24.15447
70
8
0
VERTEX
8
2
10
82.86015
20
24.45966
70
8
0
VERTEX
8
2
10
82.90783
20
24.74465
70
8
0
VERTEX
8
2
10
82.96041
20
25.01021
70
8
0
VERTEX
8
2
10
83.01688
20
25.25709
70
8
0
VERTEX
8
2
10
83.07629
20
25.48607
70
8
0
VERTEX
8
2
10
83.13765
20
25.69789
70
8
0
VERTEX
8
2
10
83.19999
20
25.89333
70
8
0
VERTEX
8
2
10
83.26306
20
26.07375
70
8
0
VERTEX
8
2
10
83.32955
20
26.24294
70
8
0
VERTEX
8
2
10
83.40287
20
26.40529
70
8
0
VERTEX
8
2
10
83.48645
20
26.56521
70
8
0
VERTEX
8
2
10
83.5837
20
26.72707
70
8
0
VERTEX
8
2
10
83.69804
20
26.89528
70
8
0
VERTEX
8
2
10
83.83288
20
27.07424
70
8
0
VERTEX
8
2
10
83.99166
20
27.26833
70
8
0
VERTEX
8
2
10
84.17732
20
27.47943
70
8
0
VERTEX
8
2
10
84.39101
20
27.69929
70
8
0
VERTEX
8
2
10
84.6334
20
27.91717
70
8
0
VERTEX
8
2
10
84.9052
20
28.12229
70
8
0
VERTEX
8
2
10
85.20707
20
28.30389
70
8
0
VERTEX
8
2
10
85.53971
20
28.45122
70
8
0
VERTEX
8
2
10
85.90379
20
28.55351
70
8
0
VERTEX
8
2
10
86.3
20
28.6
70
8
0
SEQEND
8
2
0
POLYLINE
8
2
62
5
70
4
75
6
66
1
40
0
41
0
0
VERTEX
8
2
10
88.78001
20
20.908
70
16
0
VERTEX
8
2
10
89.18
20
22.60799
70
16
0
VERTEX
8
2
10
89.18
20
23.96799
70
16
0
VERTEX
8
2
10
88.78001
20
25.568
70
16
0
VERTEX
8
2
10
88.38
20
26.368
70
16
0
VERTEX
8
2
10
87.18
20
27.568
70
16
0
VERTEX
8
2
10
86.3
20
27.6
70
16
0
VERTEX
8
2
10
88.78001
20
20.908
70
8
0
VERTEX
8
2
10
88.91191
20
21.49953
70
8
0
VERTEX
8
2
10
89.01021
20
22.00654
70
8
0
VERTEX
8
2
10
89.07883
20
22.4401
70
8
0
VERTEX
8
2
10
89.12167
20
22.81133
70
8
0
VERTEX
8
2
10
89.14263
20
23.1313
70
8
0
VERTEX
8
2
10
89.14563
20
23.41112
70
8
0
VERTEX
8
2
10
89.13456
20
23.66188
70
8
0
VERTEX
8
2
10
89.11333
20
23.89466
70
8
0
VERTEX
8
2
10
89.08534
20
24.11861
70
8
0
VERTEX
8
2
10
89.05188
20
24.33498
70
8
0
VERTEX
8
2
10
89.01373
20
24.54306
70
8
0
VERTEX
8
2
10
88.97167
20
24.74216
70
8
0
VERTEX
8
2
10
88.92649
20
24.93158
70
8
0
VERTEX
8
2
10
88.87896
20
25.1106
70
8
0
VERTEX
8
2
10
88.82987
20
25.27853
70
8
0
VERTEX
8
2
10
88.78
20
25.43467
70
8
0
VERTEX
8
2
10
88.72955
20
25.579
70
8
0
VERTEX
8
2
10
88.67636
20
25.71435
70
8
0
VERTEX
8
2
10
88.6177
20
25.84424
70
8
0
VERTEX
8
2
10
88.55084
20
25.97217
70
8
0
VERTEX
8
2
10
88.47303
20
26.10166
70
8
0
VERTEX
8
2
10
88.38156
20
26.23623
70
8
0
VERTEX
8
2
10
88.27368
20
26.37939
70
8
0
VERTEX
8
2
10
88.14667
20
26.53466
70
8
0
VERTEX
8
2
10
87.99814
20
26.70354
70
8
0
VERTEX
8
2
10
87.82719
20
26.87944
70
8
0
VERTEX
8
2
10
87.63327
20
27.05374
70
8
0
VERTEX
8
2
10
87.41583
20
27.21783
70
8
0
VERTEX
8
2
10
87.17433
20
27.36312
70
8
0
VERTEX
8
2
10
86.90823
20
27.48098
70
8
0
VERTEX
8
2
10
86.61696
20
27.56281
70
8
0
VERTEX
8
2
10
86.3
20
27.6
70
8
0
SEQEND
8
2
0
POLYLINE
8
2
62
5
70
4
75
6
66
1
40
0
41
0
0
VERTEX
8
2
10
83.82
20
20.908
70
16
0
VERTEX
8
2
10
83.41999
20
22.60799
70
16
0
VERTEX
8
2
10
83.41999
20
23.96799
70
16
0
VERTEX
8
2
10
83.82
20
25.568
70
16
0
VERTEX
8
2
10
84.21999
20
26.368
70
16
0
VERTEX
8
2
10
85.41999
20
27.568
70
16
0
VERTEX
8
2
10
86.3
20
27.6
70
16
0
VERTEX
8
2
10
83.82
20
20.908
70
8
0
VERTEX
8
2
10
83.6881
20
21.49953
70
8
0
VERTEX
8
2
10
83.58979
20
22.00654
70
8
0
VERTEX
8
2
10
83.52116
20
22.4401
70
8
0
VERTEX
8
2
10
83.47833
20
22.81133
70
8
0
VERTEX
8
2
10
83.45736
20
23.1313
70
8
0
VERTEX
8
2
10
83.45437
20
23.41112
70
8
0
VERTEX
8
2
10
83.46543
20
23.66188
70
8
0
VERTEX
8
2
10
83.48666
20
23.89466
70
8
0
VERTEX
8
2
10
83.51465
20
24.11861
70
8
0
VERTEX
8
2
10
83.54812
20
24.33498
70
8
0
VERTEX
8
2
10
83.58627
20
24.54306
70
8
0
VERTEX
8
2
10
83.62833
20
24.74216
70
8
0
VERTEX
8
2
10
83.67351
20
24.93158
70
8
0
VERTEX
8
2
10
83.72104
20
25.1106
70
8
0
VERTEX
8
2
10
83.77013
20
25.27853
70
8
0
VERTEX
8
2
10
83.82
20
25.43467
70
8
0
VERTEX
8
2
10
83.87045
20
25.579
70
8
0
VERTEX
8
2
10
83.92364
20
25.71435
70
8
0
VERTEX
8
2
10
83.9823
20
25.84424
70
8
0
VERTEX
8
2
10
84.04916
20
25.97217
70
8
0
VERTEX
8
2
10
84.12696
20
26.10166
70
8
0
VERTEX
8
2
10
84.21843
20
26.23623
70
8
0
VERTEX
8
2
10
84.32631
20
26.37939
70
8
0
VERTEX
8
2
10
84.45333
20
26.53466
70
8
0
VERTEX
8
2
10
84.60186
20
26.70354
70
8
0
VERTEX
8
2
10
84.77281
20
26.87944
70
8
0
VERTEX
8
2
10
84.96672
20
27.05374
70
8
0
VERTEX
8
2
10
85.18416
20
27.21783
70
8
0
VERTEX
8
2
10
85.42566
20
27.36312
70
8
0
VERTEX
8
2
10
85.69176
20
27.48098
70
8
0
VERTEX
8
2
10
85.98303
20
27.56281
70
8
0
VERTEX
8
2
10
86.3
20
27.6
70
8
0
SEQEND
8
2
0
LINE
8
2
62
5
10
89.4
20
17.3
11
83.19999
21
17.3
0
LINE
8
2
62
5
10
89.4
20
15
11
83.19999
21
15
0
LINE
8
1
62
5
10
97.00776
20
54.65318
11
95.79223
21
61.54683
0
LINE
8
1
62
5
10
88.49413
20
54.71926
11
90.30587
21
61.48074
0
LINE
8
1
62
5
10
83.00777
20
54.65318
11
81.79223
21
61.54683
0
LINE
8
1
62
5
10
85.4
20
54.6
11
85.4
21
61.6
0
LINE
8
1
62
5
10
76.49413
20
54.71926
11
78.30587
21
61.48074
0
LINE
8
1
62
5
10
92.4
20
54.6
11
92.4
21
61.6
0
LINE
8
1
62
5
10
74.4
20
54.6
11
74.4
21
61.6
0
LINE
8
4
62
7
10
66
20
64.7
11
68.3
21
64.7
0
LINE
8
4
62
7
10
68.3
20
52.7
11
68.3
21
64.7
0
LINE
8
4
62
7
10
68.3
20
50.39999
11
97.60001
21
50.39999
0
LINE
8
4
62
7
10
97.60001
20
52.7
11
68.3
21
52.7
0
LINE
8
1
62
5
10
56.7
20
46.53668
11
65.1
21
46.53668
0
LINE
8
1
62
5
10
56.70011
20
62.13818
11
65.10011
21
62.13818
0
LINE
8
1
62
5
10
65.10011
20
62.13818
11
65.10011
21
46.53819
0
LINE
8
1
62
5
10
56.70011
20
62.13818
11
65.10011
21
46.53819
0
LINE
8
1
62
5
10
65.10011
20
62.13818
11
56.70011
21
46.53819
0
LINE
8
1
62
5
10
56.70011
20
46.53819
11
56.70011
21
62.13818
0
LINE
8
1
62
5
10
65.10011
20
46.53819
11
56.70011
21
46.53819
0
CIRCLE
8
2
62
5
10
71.3
20
41.4
40
0.5
0
LINE
8
2
62
5
10
68.3
20
36.9
11
68.3
21
45.9
0
POLYLINE
8
2
62
5
70
4
75
6
66
1
40
0
41
0
0
VERTEX
8
2
10
71.05
20
37.65
70
16
0
VERTEX
8
2
10
69.8
20
38.15
70
16
0
VERTEX
8
2
10
69.8
20
38.15
70
16
0
VERTEX
8
2
10
69.8
20
40.15
70
16
0
VERTEX
8
2
10
71.05
20
37.65
70
8
0
VERTEX
8
2
10
70.6374
20
37.81895
70
8
0
VERTEX
8
2
10
70.32734
20
37.97031
70
8
0
VERTEX
8
2
10
70.10517
20
38.1334
70
8
0
VERTEX
8
2
10
69.95625
20
38.3375
70
8
0
VERTEX
8
2
10
69.86591
20
38.61192
70
8
0
VERTEX
8
2
10
69.81953
20
38.98594
70
8
0
VERTEX
8
2
10
69.80244
20
39.48887
70
8
0
VERTEX
8
2
10
69.8
20
40.15
70
8
0
SEQEND
8
2
0
POLYLINE
8
2
62
5
70
4
75
6
66
1
40
0
41
0
0
VERTEX
8
2
10
71.05
20
45.15
70
16
0
VERTEX
8
2
10
69.8
20
44.65
70
16
0
VERTEX
8
2
10
69.8
20
44.65
70
16
0
VERTEX
8
2
10
69.8
20
42.65
70
16
0
VERTEX
8
2
10
71.05
20
45.15
70
8
0
VERTEX
8
2
10
70.6374
20
44.98106
70
8
0
VERTEX
8
2
10
70.32734
20
44.82969
70
8
0
VERTEX
8
2
10
70.10517
20
44.6666
70
8
0
VERTEX
8
2
10
69.95625
20
44.4625
70
8
0
VERTEX
8
2
10
69.86591
20
44.18809
70
8
0
VERTEX
8
2
10
69.81953
20
43.81406
70
8
0
VERTEX
8
2
10
69.80244
20
43.31113
70
8
0
VERTEX
8
2
10
69.8
20
42.65
70
8
0
SEQEND
8
2
0
LINE
8
2
62
5
10
69.8
20
40.15
11
69.8
21
42.65
0
ARC
8
2
62
5
10
72.33775
20
42.48328
40
2.961366
50
80.03894
51
115.7757
0
ARC
8
2
62
5
10
72.33775
20
40.31672
40
2.961367
50
244.2243
51
279.961
0
POLYLINE
8
2
62
5
70
4
75
6
66
1
40
0
41
0
0
VERTEX
8
2
10
72.85
20
45.4
70
16
0
VERTEX
8
2
10
73.1
20
45.4
70
16
0
VERTEX
8
2
10
73.85
20
45.15
70
16
0
VERTEX
8
2
10
74.1
20
44.9
70
16
0
VERTEX
8
2
10
74.6
20
43.9
70
16
0
VERTEX
8
2
10
74.85
20
43.15
70
16
0
VERTEX
8
2
10
75.1
20
41.9
70
16
0
VERTEX
8
2
10
75.1
20
41.4
70
16
0
VERTEX
8
2
10
72.85
20
45.4
70
8
0
VERTEX
8
2
10
72.94908
20
45.39443
70
8
0
VERTEX
8
2
10
73.0567
20
45.37884
70
8
0
VERTEX
8
2
10
73.1697
20
45.35496
70
8
0
VERTEX
8
2
10
73.28489
20
45.32448
70
8
0
VERTEX
8
2
10
73.39911
20
45.28912
70
8
0
VERTEX
8
2
10
73.50918
20
45.25059
70
8
0
VERTEX
8
2
10
73.61192
20
45.21059
70
8
0
VERTEX
8
2
10
73.70417
20
45.17083
70
8
0
VERTEX
8
2
10
73.78363
20
45.13246
70
8
0
VERTEX
8
2
10
73.85163
20
45.09434
70
8
0
VERTEX
8
2
10
73.91034
20
45.05475
70
8
0
VERTEX
8
2
10
73.96198
20
45.01198
70
8
0
VERTEX
8
2
10
74.00873
20
44.96433
70
8
0
VERTEX
8
2
10
74.0528
20
44.91009
70
8
0
VERTEX
8
2
10
74.09638
20
44.84755
70
8
0
VERTEX
8
2
10
74.14167
20
44.775
70
8
0
VERTEX
8
2
10
74.19033
20
44.69134
70
8
0
VERTEX
8
2
10
74.24193
20
44.59792
70
8
0
VERTEX
8
2
10
74.29547
20
44.49668
70
8
0
VERTEX
8
2
10
74.35
20
44.38958
70
8
0
VERTEX
8
2
10
74.40452
20
44.27858
70
8
0
VERTEX
8
2
10
74.45807
20
44.16563
70
8
0
VERTEX
8
2
10
74.50967
20
44.05267
70
8
0
VERTEX
8
2
10
74.55833
20
43.94167
70
8
0
VERTEX
8
2
10
74.60338
20
43.8338
70
8
0
VERTEX
8
2
10
74.64525
20
43.72715
70
8
0
VERTEX
8
2
10
74.68467
20
43.61904
70
8
0
VERTEX
8
2
10
74.72239
20
43.50677
70
8
0
VERTEX
8
2
10
74.75914
20
43.38767
70
8
0
VERTEX
8
2
10
74.79564
20
43.25905
70
8
0
VERTEX
8
2
10
74.83262
20
43.11822
70
8
0
VERTEX
8
2
10
74.87083
20
42.9625
70
8
0
VERTEX
8
2
10
74.91059
20
42.79026
70
8
0
VERTEX
8
2
10
74.95058
20
42.6041
70
8
0
VERTEX
8
2
10
74.98912
20
42.40769
70
8
0
VERTEX
8
2
10
75.02448
20
42.20469
70
8
0
VERTEX
8
2
10
75.05495
20
41.99876
70
8
0
VERTEX
8
2
10
75.07884
20
41.79356
70
8
0
VERTEX
8
2
10
75.09442
20
41.59275
70
8
0
VERTEX
8
2
10
75.1
20
41.4
70
8
0
SEQEND
8
2
0
POLYLINE
8
2
62
5
70
4
75
6
66
1
40
0
41
0
0
VERTEX
8
2
10
72.85
20
37.4
70
16
0
VERTEX
8
2
10
73.1
20
37.4
70
16
0
VERTEX
8
2
10
73.85
20
37.65
70
16
0
VERTEX
8
2
10
74.1
20
37.9
70
16
0
VERTEX
8
2
10
74.6
20
38.9
70
16
0
VERTEX
8
2
10
74.85
20
39.65
70
16
0
VERTEX
8
2
10
75.1
20
40.9
70
16
0
VERTEX
8
2
10
75.1
20
41.4
70
16
0
VERTEX
8
2
10
72.85
20
37.4
70
8
0
VERTEX
8
2
10
72.94908
20
37.40558
70
8
0
VERTEX
8
2
10
73.0567
20
37.42116
70
8
0
VERTEX
8
2
10
73.1697
20
37.44505
70
8
0
VERTEX
8
2
10
73.28489
20
37.47552
70
8
0
VERTEX
8
2
10
73.39911
20
37.51088
70
8
0
VERTEX
8
2
10
73.50918
20
37.54942
70
8
0
VERTEX
8
2
10
73.61192
20
37.58941
70
8
0
VERTEX
8
2
10
73.70417
20
37.62917
70
8
0
VERTEX
8
2
10
73.78363
20
37.66754
70
8
0
VERTEX
8
2
10
73.85163
20
37.70567
70
8
0
VERTEX
8
2
10
73.91034
20
37.74526
70
8
0
VERTEX
8
2
10
73.96198
20
37.78802
70
8
0
VERTEX
8
2
10
74.00873
20
37.83567
70
8
0
VERTEX
8
2
10
74.0528
20
37.88991
70
8
0
VERTEX
8
2
10
74.09638
20
37.95245
70
8
0
VERTEX
8
2
10
74.14167
20
38.025
70
8
0
VERTEX
8
2
10
74.19033
20
38.10866
70
8
0
VERTEX
8
2
10
74.24193
20
38.20208
70
8
0
VERTEX
8
2
10
74.29547
20
38.30332
70
8
0
VERTEX
8
2
10
74.35
20
38.41042
70
8
0
VERTEX
8
2
10
74.40452
20
38.52142
70
8
0
VERTEX
8
2
10
74.45807
20
38.63438
70
8
0
VERTEX
8
2
10
74.50967
20
38.74733
70
8
0
VERTEX
8
2
10
74.55833
20
38.85833
70
8
0
VERTEX
8
2
10
74.60338
20
38.9662
70
8
0
VERTEX
8
2
10
74.64525
20
39.07285
70
8
0
VERTEX
8
2
10
74.68467
20
39.18097
70
8
0
VERTEX
8
2
10
74.72239
20
39.29323
70
8
0
VERTEX
8
2
10
74.75914
20
39.41233
70
8
0
VERTEX
8
2
10
74.79564
20
39.54095
70
8
0
VERTEX
8
2
10
74.83262
20
39.68178
70
8
0
VERTEX
8
2
10
74.87083
20
39.8375
70
8
0
VERTEX
8
2
10
74.91059
20
40.00974
70
8
0
VERTEX
8
2
10
74.95058
20
40.1959
70
8
0
VERTEX
8
2
10
74.98912
20
40.39231
70
8
0
VERTEX
8
2
10
75.02448
20
40.59531
70
8
0
VERTEX
8
2
10
75.05495
20
40.80125
70
8
0
VERTEX
8
2
10
75.07884
20
41.00645
70
8
0
VERTEX
8
2
10
75.09442
20
41.20725
70
8
0
VERTEX
8
2
10
75.1
20
41.4
70
8
0
SEQEND
8
2
0
ARC
8
2
62
5
10
72.37998
20
52.77792
40
16.39373
50
255.589
51
272.5172
0
POLYLINE
8
2
62
5
70
4
75
6
66
1
40
0
41
0
0
VERTEX
8
2
10
73.1
20
36.4
70
16
0
VERTEX
8
2
10
73.4
20
36.4
70
16
0
VERTEX
8
2
10
74.4
20
36.9
70
16
0
VERTEX
8
2
10
74.69999
20
37.2
70
16
0
VERTEX
8
2
10
75.3
20
38.4
70
16
0
VERTEX
8
2
10
75.6
20
39.3
70
16
0
VERTEX
8
2
10
75.9
20
40.8
70
16
0
VERTEX
8
2
10
75.9
20
41.4
70
16
0
VERTEX
8
2
10
73.1
20
36.4
70
8
0
VERTEX
8
2
10
73.22109
20
36.41109
70
8
0
VERTEX
8
2
10
73.35625
20
36.4418
70
8
0
VERTEX
8
2
10
73.50078
20
36.48833
70
8
0
VERTEX
8
2
10
73.65
20
36.54688
70
8
0
VERTEX
8
2
10
73.79922
20
36.61362
70
8
0
VERTEX
8
2
10
73.94375
20
36.68477
70
8
0
VERTEX
8
2
10
74.07891
20
36.7565
70
8
0
VERTEX
8
2
10
74.2
20
36.825
70
8
0
VERTEX
8
2
10
74.30361
20
36.88755
70
8
0
VERTEX
8
2
10
74.3914
20
36.94571
70
8
0
VERTEX
8
2
10
74.46631
20
37.0021
70
8
0
VERTEX
8
2
10
74.53125
20
37.05938
70
8
0
VERTEX
8
2
10
74.58915
20
37.12017
70
8
0
VERTEX
8
2
10
74.64296
20
37.18711
70
8
0
VERTEX
8
2
10
74.6956
20
37.26285
70
8
0
VERTEX
8
2
10
74.74999
20
37.35
70
8
0
VERTEX
8
2
10
74.80839
20
37.45039
70
8
0
VERTEX
8
2
10
74.8703
20
37.5625
70
8
0
VERTEX
8
2
10
74.93456
20
37.68399
70
8
0
VERTEX
8
2
10
74.99999
20
37.8125
70
8
0
VERTEX
8
2
10
75.06542
20
37.94571
70
8
0
VERTEX
8
2
10
75.12968
20
38.08125
70
8
0
VERTEX
8
2
10
75.1916
20
38.2168
70
8
0
VERTEX
8
2
10
75.24999
20
38.35
70
8
0
VERTEX
8
2
10
75.30405
20
38.47944
70
8
0
VERTEX
8
2
10
75.35429
20
38.60742
70
8
0
VERTEX
8
2
10
75.40161
20
38.73716
70
8
0
VERTEX
8
2
10
75.44687
20
38.87187
70
8
0
VERTEX
8
2
10
75.49096
20
39.01479
70
8
0
VERTEX
8
2
10
75.53476
20
39.16914
70
8
0
VERTEX
8
2
10
75.57915
20
39.33813
70
8
0
VERTEX
8
2
10
75.625
20
39.525
70
8
0
VERTEX
8
2
10
75.6727
20
39.73169
70
8
0
VERTEX
8
2
10
75.7207
20
39.95507
70
8
0
VERTEX
8
2
10
75.76694
20
40.19077
70
8
0
VERTEX
8
2
10
75.80938
20
40.43437
70
8
0
VERTEX
8
2
10
75.84595
20
40.68149
70
8
0
VERTEX
8
2
10
75.87461
20
40.92773
70
8
0
VERTEX
8
2
10
75.89331
20
41.1687
70
8
0
VERTEX
8
2
10
75.9
20
41.4
70
8
0
SEQEND
8
2
0
POLYLINE
8
2
62
5
70
4
75
6
66
1
40
0
41
0
0
VERTEX
8
2
10
73.1
20
46.4
70
16
0
VERTEX
8
2
10
73.4
20
46.4
70
16
0
VERTEX
8
2
10
74.4
20
45.9
70
16
0
VERTEX
8
2
10
74.69999
20
45.6
70
16
0
VERTEX
8
2
10
75.3
20
44.4
70
16
0
VERTEX
8
2
10
75.6
20
43.50001
70
16
0
VERTEX
8
2
10
75.9
20
42.00001
70
16
0
VERTEX
8
2
10
75.9
20
41.4
70
16
0
VERTEX
8
2
10
73.1
20
46.4
70
8
0
VERTEX
8
2
10
73.22109
20
46.38892
70
8
0
VERTEX
8
2
10
73.35625
20
46.3582
70
8
0
VERTEX
8
2
10
73.50078
20
46.31167
70
8
0
VERTEX
8
2
10
73.65
20
46.25313
70
8
0
VERTEX
8
2
10
73.79922
20
46.18638
70
8
0
VERTEX
8
2
10
73.94375
20
46.11524
70
8
0
VERTEX
8
2
10
74.07891
20
46.04351
70
8
0
VERTEX
8
2
10
74.2
20
45.975
70
8
0
VERTEX
8
2
10
74.30361
20
45.91245
70
8
0
VERTEX
8
2
10
74.3914
20
45.8543
70
8
0
VERTEX
8
2
10
74.46631
20
45.7979
70
8
0
VERTEX
8
2
10
74.53125
20
45.74063
70
8
0
VERTEX
8
2
10
74.58915
20
45.67983
70
8
0
VERTEX
8
2
10
74.64296
20
45.61289
70
8
0
VERTEX
8
2
10
74.6956
20
45.53716
70
8
0
VERTEX
8
2
10
74.74999
20
45.45
70
8
0
VERTEX
8
2
10
74.80839
20
45.34961
70
8
0
VERTEX
8
2
10
74.8703
20
45.2375
70
8
0
VERTEX
8
2
10
74.93456
20
45.11602
70
8
0
VERTEX
8
2
10
74.99999
20
44.9875
70
8
0
VERTEX
8
2
10
75.06542
20
44.8543
70
8
0
VERTEX
8
2
10
75.12968
20
44.71875
70
8
0
VERTEX
8
2
10
75.1916
20
44.5832
70
8
0
VERTEX
8
2
10
75.24999
20
44.45
70
8
0
VERTEX
8
2
10
75.30405
20
44.32056
70
8
0
VERTEX
8
2
10
75.35429
20
44.19258
70
8
0
VERTEX
8
2
10
75.40161
20
44.06285
70
8
0
VERTEX
8
2
10
75.44687
20
43.92813
70
8
0
VERTEX
8
2
10
75.49096
20
43.78521
70
8
0
VERTEX
8
2
10
75.53476
20
43.63087
70
8
0
VERTEX
8
2
10
75.57915
20
43.46187
70
8
0
VERTEX
8
2
10
75.625
20
43.27501
70
8
0
VERTEX
8
2
10
75.6727
20
43.06832
70
8
0
VERTEX
8
2
10
75.7207
20
42.84493
70
8
0
VERTEX
8
2
10
75.76694
20
42.60924
70
8
0
VERTEX
8
2
10
75.80938
20
42.36563
70
8
0
VERTEX
8
2
10
75.84595
20
42.11851
70
8
0
VERTEX
8
2
10
75.87461
20
41.87227
70
8
0
VERTEX
8
2
10
75.89331
20
41.6313
70
8
0
VERTEX
8
2
10
75.9
20
41.4
70
8
0
SEQEND
8
2
0
ARC
8
2
62
5
10
72.37998
20
30.0221
40
16.39372
50
87.48276
51
104.411
0
LINE
8
4
62
7
10
11.3
20
121.7
11
61.00002
21
121.7
0
LINE
8
4
62
7
10
61.00002
20
124
11
11.3
21
124
0
LINE
8
1
62
5
10
47
20
125
11
67
21
125
0
LINE
8
4
62
6
10
66
20
82.40001
11
48.3
21
82.40001
0
LINE
8
1
62
5
10
28.5
20
120.3
11
56.5
21
120.3
0
LINE
8
1
62
5
10
56.5
20
120.8
11
18.5
21
120.8
0
LINE
8
1
62
5
10
18.5
20
102.8
11
56.5
21
102.8
0
LINE
8
1
62
5
10
12.5
20
95.8
11
12.5
21
102.8
0
LINE
8
1
62
5
10
19.5
20
95.8
11
19.5
21
102.8
0
LINE
8
1
62
5
10
20.5048
20
80.31219
11
35.00572
21
73.55032
0
LINE
8
1
62
5
10
32.77049
20
73.48924
11
34.5831
21
72.64401
0
LINE
8
1
62
5
10
21.89479
20
78.56065
11
20.08219
21
79.40588
0
LINE
8
1
62
5
10
12.5
20
95.8
11
19.5
21
95.8
0
CIRCLE
8
1
62
5
10
18.8
20
87.1
40
3
0
LINE
8
1
62
5
10
15.26446
20
83.56446
11
22.33553
21
90.63554
0
LINE
8
1
62
5
10
22.33553
20
83.56446
11
15.26446
21
90.63554
0
LINE
8
1
62
5
10
18.8
20
93.1
11
18.8
21
81.1
0
LINE
8
1
62
5
10
24.8
20
87.1
11
12.8
21
87.1
0
LINE
8
4
62
7
10
11.3
20
116.7
11
11.3
21
121.7
0
ARC
8
1
62
5
10
35.71721
20
132.2663
40
1.5
50
203
51
293
0
LINE
8
1
62
5
10
43.2071
20
133.816
11
36.30332
21
130.8855
0
LINE
8
1
62
5
10
18.5
20
102.8
11
18.5
21
120.8
0
LINE
8
1
62
5
10
33.5
20
102.8
11
28.5
21
107.8
0
LINE
8
1
62
5
10
28.5
20
107.8
11
33.5
21
107.8
0
LINE
8
1
62
5
10
32.25
20
104.05
11
19.75
21
104.05
0
LINE
8
1
62
5
10
33.5
20
102.8
11
33.5
21
107.8
0
LINE
8
1
62
5
10
19.75
20
104.05
11
19.75
21
119.55
0
LINE
8
1
62
5
10
28.5
20
107.8
11
28.5
21
120.3
0
LINE
8
1
62
5
10
19.75
20
119.675
11
28.5
21
119.675
0
LINE
8
1
62
5
10
12.5
20
102.8
11
19.5
21
102.8
0
LINE
8
1
62
5
10
12.5
20
120.8
11
18.5
21
120.8
0
LINE
8
1
62
5
10
18.5
20
120.8
11
18.5
21
102.8
0
LINE
8
1
62
5
10
18.5
20
120.8
11
12.5
21
102.8
0
LINE
8
1
62
5
10
12.5
20
120.8
11
18.5
21
102.8
0
LINE
8
1
62
5
10
12.5
20
102.8
11
12.5
21
120.8
0
LINE
8
1
62
5
10
18.5
20
102.8
11
12.5
21
102.8
0
LINE
8
4
62
7
10
68.3
20
89.7
11
68.3
21
116.7
0
LINE
8
4
62
7
10
66
20
116.7
11
66
21
82.39999
0
ARC
8
4
62
6
10
73.3
20
89.7
40
15.2
50
360
51
90
0
LINE
8
4
62
6
10
73.3
20
89.7
11
73.3
21
104.9
0
LINE
8
4
62
7
10
66
20
82.40001
11
68.3
21
82.40001
0
LINE
8
4
62
7
10
68.3
20
82.39999
11
68.3
21
87.39999
0
LINE
8
4
62
7
10
68.3
20
87.39999
11
73.3
21
87.39999
0
LINE
8
4
62
7
10
73.3
20
89.7
11
68.3
21
89.7
0
LINE
8
4
62
7
10
88.49999
20
89.7
11
88.49999
21
87.4
0
LINE
8
4
62
7
10
73.3
20
89.7
11
73.3
21
87.4
0
LINE
8
4
62
7
10
68.3
20
121.7
11
97.5
21
121.7
0
LINE
8
4
62
7
10
97.5
20
124
11
61
21
124
0
LINE
8
4
62
7
10
61
20
121.7
11
66
21
121.7
0
LINE
8
4
62
7
10
66
20
121.7
11
66
21
116.7
0
LINE
8
4
62
7
10
68.3
20
116.7
11
68.3
21
121.7
0
ARC
8
1
62
5
10
57
20
125
40
3
50
6.832453e-07
51
180
0
LINE
8
1
62
5
10
54
20
125
11
60
21
125
0
LINE
8
1
62
5
10
53.46448
20
128.5355
11
57
21
125
0
LINE
8
1
62
5
10
57
20
125
11
57
21
131
0
LINE
8
1
62
5
10
60.53554
20
128.5355
11
57
21
125
0
LINE
8
1
62
5
10
56.5
20
102.8
11
56.5
21
120.8
0
LINE
8
4
62
6
10
138.5
20
49.7
11
138.5
21
79.7
0
LINE
8
4
62
6
10
147.5
20
77.2
11
147.5
21
52.19999
0
LINE
8
4
62
6
10
147.5
20
77.2
11
147.5
21
52.19999
0
LINE
8
4
62
7
10
156.5
20
99.3
11
156.5
21
19.59999
0
LINE
8
4
62
7
10
158.8
20
19.59999
11
158.8
21
99.3
0
LINE
8
4
62
6
10
156.5
20
15
11
134
21
15
0
LINE
8
4
62
6
10
138.5
20
64.7
11
156.5
21
64.7
0
LINE
8
4
62
6
10
138.5
20
54.7
11
156.5
21
54.7
0
LINE
8
4
62
6
10
138.5
20
49.7
11
156.5
21
54.7
0
LINE
8
4
62
6
10
138.5
20
47
11
156.5
21
52
0
LINE
8
4
62
6
10
138.5
20
47
11
156.5
21
47
0
LINE
8
4
62
6
10
138.5
20
33
11
156.5
21
15
0
LINE
8
4
62
6
10
138.5
20
35.5
11
156.5
21
27
0
LINE
8
4
62
6
10
138.5
20
38
11
156.5
21
35
0
LINE
8
4
62
6
10
138.5
20
42
11
156.5
21
42
0
LINE
8
4
62
6
10
138.5
20
59.7
11
156.5
21
59.7
0
LINE
8
4
62
7
10
151.7
20
7.699997
11
176.8
21
7.699997
0
LINE
8
4
62
7
10
156.5
20
15
11
151.7
21
15
0
LINE
8
4
62
6
10
138.5
20
33
11
138.5
21
47
0
LINE
8
4
62
6
10
147.5
20
24
11
147.5
21
49.5
0
LINE
8
4
62
6
10
104.8
20
30.2
11
112.6
21
43.2
0
LINE
8
4
62
6
10
132.9
20
12.5668
11
151.7
21
12.5668
0
LINE
8
4
62
6
10
136
20
33
11
144.5
21
15
0
LINE
8
4
62
6
10
134
20
15
11
134
21
33
0
LINE
8
4
62
6
10
134
20
33
11
138.5
21
33
0
CIRCLE
8
4
62
6
10
134
20
24
40
2
0
LINE
8
4
62
6
10
136
20
24
11
147.4
21
24
0
LINE
8
4
62
7
10
112.8
20
15
11
104.8
21
15
0
LINE
8
4
62
7
10
104.8
20
15
11
104.8
21
30.2
0
LINE
8
4
62
7
10
102.5
20
30.2
11
102.5
21
15
0
LINE
8
4
62
7
10
104.8
20
30.2
11
102.5
21
30.2
0
ARC
8
4
62
6
10
112.9
20
12.5668
40
20
50
5.008956e-06
51
90
0
LINE
8
4
62
6
10
112.9
20
12.5668
11
112.9
21
32.5668
0
LINE
8
4
62
7
10
112.8
20
15
11
112.8
21
7.699999
0
LINE
8
4
62
7
10
112.9
20
12.5668
11
112.8
21
12.5668
0
CIRCLE
8
4
62
6
10
134
20
24
40
2
0
LINE
8
4
62
6
10
136
20
24
11
147.4
21
24
0
LINE
8
4
62
7
10
151.7
20
15
11
151.7
21
7.699999
0
LINE
8
4
62
7
10
102.5
20
60.2
11
104.8
21
60.2
0
LINE
8
4
62
7
10
102.5
20
50.4
11
102.5
21
45.4
0
LINE
8
4
62
7
10
104.8
20
45.4
11
104.8
21
60.2
0
LINE
8
4
62
7
10
102.5
20
60.2
11
102.5
21
52.7
0
ARC
8
4
62
6
10
104.8
20
30.2
40
15.2
50
59.03626
51
90.00001
0
LINE
8
4
62
7
10
104.8
20
45.39999
11
102.5
21
45.39999
0
LINE
8
4
62
7
10
178.05
20
7.699997
11
176.8
21
7.699997
0
LINE
8
4
62
7
10
176.8
20
10.09999
11
178.05
21
10.09999
0
LINE
8
4
62
7
10
178.05
20
10.09999
11
178.05
21
7.699997
0
LINE
8
4
62
7
10
176.8
20
15
11
176.8
21
10.09999
0
LINE
8
4
62
7
10
176.8
20
15
11
158.8
21
15
0
LINE
8
4
62
7
10
158.8
20
15
11
158.8
21
20
0
LINE
8
4
62
7
10
156.5
20
20
11
156.5
21
15
0
LINE
8
4
62
6
10
138.5
20
79.7
11
156.5
21
79.7
0
LINE
8
4
62
6
10
138.5
20
74.7
11
156.5
21
74.7
0
LINE
8
4
62
6
10
138.5
20
69.7
11
156.5
21
69.7
0
LINE
8
4
62
7
10
104.8
20
87.4
11
104.8
21
116.7
0
LINE
8
4
62
7
10
102.5
20
116.7
11
102.5
21
89.7
0
LINE
8
4
62
6
10
146.25
20
77.2
11
148.75
21
77.2
0
LINE
8
4
62
6
10
146.25
20
77.2
11
147.5
21
79.7
0
LINE
8
4
62
6
10
147.5
20
79.7
11
148.75
21
77.2
0
LINE
8
4
62
6
10
146.25
20
77.2
11
148.75
21
77.2
0
LINE
8
4
62
6
10
146.25
20
77.2
11
147.5
21
79.7
0
LINE
8
4
62
6
10
147.5
20
79.7
11
148.75
21
77.2
0
LINE
8
4
62
7
10
102.5
20
129
11
104.8
21
129
0
LINE
8
4
62
7
10
102.5
20
121.7
11
102.5
21
116.7
0
LINE
8
4
62
7
10
104.8
20
116.7
11
104.8
21
129
0
LINE
8
4
62
7
10
102.5
20
129
11
102.5
21
124
0
ARC
8
4
62
6
10
158.8
20
117
40
17.7
50
270
51
6.832453e-07
0
LINE
8
4
62
7
10
158.8
20
99.3
11
156.5
21
99.3
0
LINE
8
4
62
7
10
158.8
20
121.5
11
202.6
21
121.5
0
LINE
8
4
62
7
10
202.6
20
123.8
11
158.8
21
123.8
0
LINE
8
4
62
7
10
158.8
20
123.8
11
158.8
21
128.9
0
LINE
8
4
62
7
10
156.5
20
128.9
11
156.5
21
117
0
LINE
8
4
62
7
10
158.8
20
117
11
158.8
21
121.5
0
LINE
8
1
62
5
10
199.7
20
123.8
11
199.7
21
133.8
0
LINE
8
1
62
5
10
199.7
20
128.8
11
198.3
21
128.8
0
LINE
8
1
62
5
10
198.3
20
123.8
11
198.3
21
128.8
0
LINE
8
4
62
6
10
158.8
20
128.9
11
176.5
21
128.9
0
LINE
8
4
62
7
10
158.8
20
128.9
11
156.5
21
128.9
0
LINE
8
4
62
6
10
158.8
20
117
11
176.5
21
117
0
LINE
8
4
62
7
10
158.8
20
117
11
156.5
21
117
0
LINE
8
4
62
7
10
121.3
20
227.3
11
82.5
21
227.3
0
LINE
8
4
62
7
10
82.5
20
220
11
102.5
21
220
0
LINE
8
5
62
7
10
107.5
20
241
11
1.5
21
241
0
LINE
8
5
62
7
10
160.5
20
251
11
1.5
21
251
0
LINE
8
1
62
5
10
89.5
20
214
11
101.5
21
194
0
LINE
8
1
62
5
10
101.5
20
214
11
89.5
21
194
0
LINE
8
1
62
5
10
89.5
20
194
11
89.5
21
214
0
ARC
8
4
62
6
10
42.40001
20
222.4332
40
20
50
270
51
0
0
LINE
8
4
62
6
10
42.40001
20
222.4332
11
42.40001
21
202.4332
0
ARC
8
4
62
6
10
82.4
20
222.4332
40
20
50
180
51
270
0
LINE
8
4
62
6
10
82.4
20
222.4332
11
82.4
21
202.4332
0
LINE
8
1
62
5
10
18.3
20
204.1
11
18.3
21
194.1
0
LINE
8
1
62
5
10
12.3
20
204.1
11
12.3
21
194.1
0
LINE
8
1
62
5
10
101.5
20
214
11
101.5
21
194
0
LINE
8
1
62
5
10
67
20
137
11
47
21
137
0
LINE
8
1
62
5
10
52.3
20
154.1
11
12.3
21
154.1
0
LINE
8
1
62
5
10
22.3
20
173.475
11
52.3
21
173.475
0
LINE
8
1
62
5
10
22.3
20
174.725
11
52.3
21
174.725
0
LINE
8
1
62
5
10
12.3
20
194.1
11
52.3
21
194.1
0
LINE
8
1
62
5
10
12.3
20
154.1
11
12.3
21
194.1
0
LINE
8
1
62
5
10
13.55
20
155.35
11
13.55
21
172.85
0
LINE
8
1
62
5
10
22.3
20
159.1
11
22.3
21
173.475
0
ARC
8
1
62
5
10
33.37282
20
137.7893
40
1.5
50
113
51
203
0
LINE
8
1
62
5
10
32.78673
20
139.17
11
39.69053
21
142.1005
0
LINE
8
1
62
5
10
27.3
20
159.1
11
27.3
21
154.1
0
LINE
8
1
62
5
10
22.3
20
159.1
11
27.3
21
154.1
0
LINE
8
1
62
5
10
26.05
20
155.35
11
13.55
21
155.35
0
LINE
8
1
62
5
10
22.3
20
159.1
11
27.3
21
159.1
0
ARC
8
1
62
5
10
12.3
20
150.1
40
3
50
270
51
90
0
LINE
8
1
62
5
10
12.3
20
153.1
11
12.3
21
147.1
0
LINE
8
1
62
5
10
15.83554
20
153.6355
11
12.3
21
150.1
0
LINE
8
1
62
5
10
12.3
20
150.1
11
18.3
21
150.1
0
LINE
8
1
62
5
10
15.83554
20
146.5645
11
12.3
21
150.1
0
LINE
8
1
62
5
10
18.3
20
154.1
11
18.3
21
144.1
0
LINE
8
1
62
5
10
12.3
20
154.1
11
18.3
21
154.1
0
LINE
8
1
62
5
10
12.3
20
144.1
11
18.3
21
144.1
0
LINE
8
1
62
5
10
12.3
20
154.1
11
12.3
21
144.1
0
LINE
8
1
62
5
10
12.3
20
194.1
11
18.3
21
194.1
0
ARC
8
1
62
5
10
12.3
20
198.1
40
3
50
270
51
90
0
LINE
8
1
62
5
10
12.3
20
201.1
11
12.3
21
195.1
0
LINE
8
1
62
5
10
15.83554
20
201.6355
11
12.3
21
198.1
0
LINE
8
1
62
5
10
12.3
20
198.1
11
18.3
21
198.1
0
LINE
8
1
62
5
10
15.83554
20
194.5645
11
12.3
21
198.1
0
LINE
8
1
62
5
10
13.55
20
175.35
11
13.55
21
192.85
0
LINE
8
1
62
5
10
22.3
20
174.725
11
22.3
21
189.1
0
LINE
8
1
62
5
10
13.55
20
172.85
11
22.3
21
172.85
0
LINE
8
1
62
5
10
22.3
20
175.35
11
13.55
21
175.35
0
LINE
8
1
62
5
10
22.3
20
189.1
11
27.3
21
189.1
0
LINE
8
1
62
5
10
22.3
20
189.1
11
27.3
21
194.1
0
LINE
8
1
62
5
10
13.55
20
192.85
11
26.05
21
192.85
0
LINE
8
1
62
5
10
27.3
20
189.1
11
27.3
21
194.1
0
LINE
8
1
62
5
10
89.5
20
174
11
101.5
21
154
0
LINE
8
1
62
5
10
101.5
20
174
11
89.5
21
154
0
LINE
8
1
62
5
10
89.5
20
154
11
89.5
21
174
0
LINE
8
1
62
5
10
52.3
20
194.1
11
52.3
21
154.1
0
LINE
8
1
62
5
10
101.5
20
174
11
101.5
21
154
0
LINE
8
1
62
5
10
101.5
20
154
11
89.5
21
154
0
LINE
8
1
62
5
10
101.5
20
174
11
89.5
21
174
0
LINE
8
1
62
5
10
101.5
20
194
11
89.5
21
194
0
LINE
8
1
62
5
10
101.5
20
174
11
89.5
21
174
0
LINE
8
1
62
5
10
89.5
20
194
11
101.5
21
174
0
LINE
8
1
62
5
10
101.5
20
194
11
89.5
21
174
0
LINE
8
1
62
5
10
101.5
20
194
11
89.5
21
194
0
LINE
8
1
62
5
10
89.5
20
174
11
89.5
21
194
0
LINE
8
1
62
5
10
101.5
20
194
11
101.5
21
174
0
TEXT
8
5
62
7
10
50
20
243
40
5
1
5 m
41
0.5
7
txt
0
LINE
8
5
62
7
10
4.000001
20
243.5
11
4.000001
21
236
0
LINE
8
4
62
7
10
4
20
227.3
11
4
21
215
0
LINE
8
4
62
7
10
11.3
20
215
11
11.3
21
220
0
LINE
8
4
62
7
10
11.3
20
220
11
42.3
21
220
0
LINE
8
4
62
7
10
42.3
20
227.3
11
4
21
227.3
0
LINE
8
4
62
7
10
42.3
20
220
11
42.3
21
227.3
0
LINE
8
4
62
7
10
42.40001
20
222.4332
11
42.3
21
222.4332
0
LINE
8
1
62
5
10
12.3
20
204.1
11
18.3
21
204.1
0
LINE
8
5
62
7
10
2.750001
20
260.75
11
5.250001
21
263.25
0
LINE
8
5
62
7
10
4.000001
20
264.5
11
4.000001
21
257
0
LINE
8
5
62
7
10
2.750001
20
239.75
11
5.250001
21
242.25
0
LINE
8
5
62
7
10
2.750001
20
249.75
11
5.250001
21
252.25
0
LINE
8
5
62
7
10
4.000001
20
253.5
11
4.000001
21
246
0
LINE
8
1
62
5
10
101.5
20
214
11
89.5
21
214
0
LINE
8
4
62
7
10
82.49999
20
220
11
82.49999
21
227.3
0
LINE
8
4
62
7
10
82.4
20
222.4332
11
82.49999
21
222.4332
0
TEXT
8
5
62
7
10
76
20
253
40
5
1
7.65 m
41
0.5
7
txt
0
LINE
8
1
62
5
10
180.1
20
201.4
11
180.1
21
217.4
0
LINE
8
1
62
5
10
182.1
20
215.4
11
182.1
21
202.4
0
LINE
8
1
62
5
10
196.76
20
201.4
11
196.76
21
214.4
0
LINE
8
4
62
7
10
102.5
20
220
11
102.5
21
159
0
LINE
8
4
62
7
10
107.3
20
159
11
107.3
21
220
0
LINE
8
4
62
7
10
156.5
20
220
11
156.5
21
170.3
0
LINE
8
4
62
7
10
158.8
20
170.3
11
158.8
21
220
0
LINE
8
2
62
5
10
156.5
20
206
11
156.5
21
170
0
LINE
8
2
62
5
10
140.5
20
170
11
140.5
21
206
0
LINE
8
2
62
5
10
141.5
20
177
11
141.5
21
204
0
LINE
8
2
62
5
10
155.5
20
204
11
155.5
21
177
0
CIRCLE
8
2
62
5
10
148.5
20
202.5
40
0.5
0
ARC
8
2
62
5
10
117.3
20
206
40
4
50
270
51
90
0
LINE
8
2
62
5
10
107.3
20
202
11
107.3
21
210
0
LINE
8
2
62
5
10
110.3
20
210
11
110.3
21
202
0
LINE
8
2
62
5
10
110.8
20
202
11
110.8
21
210
0
LINE
8
1
62
5
10
165.1
20
213.4
11
165.1
21
201.4
0
LINE
8
1
62
5
10
177.1
20
213.4
11
177.1
21
201.4
0
ARC
8
2
62
5
10
148.5
20
178.0833
40
7.083333
50
188.7974
51
351.2026
0
LINE
8
2
62
5
10
156.5
20
170
11
140.5
21
170
0
LINE
8
4
62
7
10
156.5
20
154
11
135.5
21
154
0
LINE
8
4
62
7
10
135.5
20
151.7
11
156.5
21
151.7
0
LINE
8
2
62
5
10
140.5
20
154
11
156.5
21
154
0
LINE
8
2
62
5
10
155.5
20
155
11
141.5
21
155
0
LINE
8
2
62
5
10
140.5
20
170
11
156.5
21
170
0
LINE
8
2
62
5
10
141.5
20
169
11
155.5
21
169
0
LINE
8
2
62
5
10
140.5
20
170
11
140.5
21
154
0
LINE
8
2
62
5
10
141.5
20
155
11
141.5
21
169
0
ARC
8
4
62
6
10
135.5
20
154
40
15.2
50
90
51
180
0
LINE
8
4
62
6
10
135.5
20
154
11
135.5
21
169.2
0
LINE
8
2
62
5
10
107.3
20
165.2
11
107.3
21
190.2
0
POLYLINE
8
2
62
5
70
4
75
6
66
1
40
0
41
0
0
VERTEX
8
2
10
114.2281
20
165.9969
70
16
0
VERTEX
8
2
10
114.4772
20
165.9751
70
16
0
VERTEX
8
2
10
115.2461
20
166.1588
70
16
0
VERTEX
8
2
10
115.5169
20
166.386
70
16
0
VERTEX
8
2
10
116.1022
20
167.3386
70
16
0
VERTEX
8
2
10
116.4166
20
168.064
70
16
0
VERTEX
8
2
10
116.7746
20
169.2875
70
16
0
VERTEX
8
2
10
116.9751
20
171.5787
70
16
0
VERTEX
8
2
10
114.2281
20
165.9969
70
8
0
VERTEX
8
2
10
114.3273
20
165.9938
70
8
0
VERTEX
8
2
10
114.4359
20
165.9999
70
8
0
VERTEX
8
2
10
114.5505
20
166.0139
70
8
0
VERTEX
8
2
10
114.6679
20
166.0342
70
8
0
VERTEX
8
2
10
114.7848
20
166.0595
70
8
0
VERTEX
8
2
10
114.8978
20
166.0883
70
8
0
VERTEX
8
2
10
115.0036
20
166.1192
70
8
0
VERTEX
8
2
10
115.099
20
166.1507
70
8
0
VERTEX
8
2
10
115.1815
20
166.182
70
8
0
VERTEX
8
2
10
115.2526
20
166.2141
70
8
0
VERTEX
8
2
10
115.3145
20
166.2484
70
8
0
VERTEX
8
2
10
115.3697
20
166.2865
70
8
0
VERTEX
8
2
10
115.4204
20
166.3299
70
8
0
VERTEX
8
2
10
115.469
20
166.3801
70
8
0
VERTEX
8
2
10
115.5179
20
166.4386
70
8
0
VERTEX
8
2
10
115.5693
20
166.5069
70
8
0
VERTEX
8
2
10
115.6251
20
166.586
70
8
0
VERTEX
8
2
10
115.6846
20
166.6746
70
8
0
VERTEX
8
2
10
115.7468
20
166.7708
70
8
0
VERTEX
8
2
10
115.8105
20
166.8727
70
8
0
VERTEX
8
2
10
115.8745
20
166.9785
70
8
0
VERTEX
8
2
10
115.9376
20
167.0864
70
8
0
VERTEX
8
2
10
115.9989
20
167.1944
70
8
0
VERTEX
8
2
10
116.057
20
167.3008
70
8
0
VERTEX
8
2
10
116.1113
20
167.4043
70
8
0
VERTEX
8
2
10
116.1623
20
167.5069
70
8
0
VERTEX
8
2
10
116.211
20
167.6112
70
8
0
VERTEX
8
2
10
116.2584
20
167.7197
70
8
0
VERTEX
8
2
10
116.3054
20
167.8352
70
8
0
VERTEX
8
2
10
116.3529
20
167.9601
70
8
0
VERTEX
8
2
10
116.4021
20
168.0972
70
8
0
VERTEX
8
2
10
116.4537
20
168.249
70
8
0
VERTEX
8
2
10
116.5086
20
168.4206
70
8
0
VERTEX
8
2
10
116.5668
20
168.6271
70
8
0
VERTEX
8
2
10
116.6282
20
168.8859
70
8
0
VERTEX
8
2
10
116.6924
20
169.2147
70
8
0
VERTEX
8
2
10
116.7594
20
169.6308
70
8
0
VERTEX
8
2
10
116.829
20
170.1518
70
8
0
VERTEX
8
2
10
116.9009
20
170.7953
70
8
0
VERTEX
8
2
10
116.9751
20
171.5787
70
8
0
SEQEND
8
2
0
POLYLINE
8
2
62
5
70
4
75
6
66
1
40
0
41
0
0
VERTEX
8
2
10
110.0659
20
166.612
70
16
0
VERTEX
8
2
10
108.8642
20
167.219
70
16
0
VERTEX
8
2
10
108.8642
20
167.219
70
16
0
VERTEX
8
2
10
109.0385
20
169.2114
70
16
0
VERTEX
8
2
10
110.0659
20
166.612
70
8
0
VERTEX
8
2
10
109.6696
20
166.8162
70
8
0
VERTEX
8
2
10
109.3739
20
166.9941
70
8
0
VERTEX
8
2
10
109.1668
20
167.1759
70
8
0
VERTEX
8
2
10
109.0362
20
167.3922
70
8
0
VERTEX
8
2
10
108.9701
20
167.6734
70
8
0
VERTEX
8
2
10
108.9565
20
168.0501
70
8
0
VERTEX
8
2
10
108.9833
20
168.5526
70
8
0
VERTEX
8
2
10
109.0385
20
169.2114
70
8
0
SEQEND
8
2
0
POLYLINE
8
2
62
5
70
4
75
6
66
1
40
0
41
0
0
VERTEX
8
2
10
115.5
20
164.7
70
16
0
VERTEX
8
2
10
115.8
20
164.7
70
16
0
VERTEX
8
2
10
116.8
20
165.2
70
16
0
VERTEX
8
2
10
117.1
20
165.5
70
16
0
VERTEX
8
2
10
117.7
20
166.7
70
16
0
VERTEX
8
2
10
118
20
167.6
70
16
0
VERTEX
8
2
10
118.3
20
169.1
70
16
0
VERTEX
8
2
10
118.3
20
171.5
70
16
0
VERTEX
8
2
10
115.5
20
164.7
70
8
0
VERTEX
8
2
10
115.6211
20
164.7111
70
8
0
VERTEX
8
2
10
115.7563
20
164.7418
70
8
0
VERTEX
8
2
10
115.9008
20
164.7883
70
8
0
VERTEX
8
2
10
116.05
20
164.8469
70
8
0
VERTEX
8
2
10
116.1992
20
164.9136
70
8
0
VERTEX
8
2
10
116.3438
20
164.9848
70
8
0
VERTEX
8
2
10
116.4789
20
165.0565
70
8
0
VERTEX
8
2
10
116.6
20
165.125
70
8
0
VERTEX
8
2
10
116.7036
20
165.1875
70
8
0
VERTEX
8
2
10
116.7914
20
165.2457
70
8
0
VERTEX
8
2
10
116.8663
20
165.3021
70
8
0
VERTEX
8
2
10
116.9312
20
165.3594
70
8
0
VERTEX
8
2
10
116.9892
20
165.4202
70
8
0
VERTEX
8
2
10
117.043
20
165.4871
70
8
0
VERTEX
8
2
10
117.0956
20
165.5628
70
8
0
VERTEX
8
2
10
117.15
20
165.65
70
8
0
VERTEX
8
2
10
117.2084
20
165.7504
70
8
0
VERTEX
8
2
10
117.2703
20
165.8625
70
8
0
VERTEX
8
2
10
117.3346
20
165.984
70
8
0
VERTEX
8
2
10
117.4
20
166.1125
70
8
0
VERTEX
8
2
10
117.4654
20
166.2457
70
8
0
VERTEX
8
2
10
117.5297
20
166.3812
70
8
0
VERTEX
8
2
10
117.5916
20
166.5168
70
8
0
VERTEX
8
2
10
117.65
20
166.65
70
8
0
VERTEX
8
2
10
117.7041
20
166.7794
70
8
0
VERTEX
8
2
10
117.7543
20
166.9074
70
8
0
VERTEX
8
2
10
117.8016
20
167.0372
70
8
0
VERTEX
8
2
10
117.8469
20
167.1719
70
8
0
VERTEX
8
2
10
117.891
20
167.3148
70
8
0
VERTEX
8
2
10
117.9348
20
167.4691
70
8
0
VERTEX
8
2
10
117.9792
20
167.6381
70
8
0
VERTEX
8
2
10
118.025
20
167.825
70
8
0
VERTEX
8
2
10
118.0727
20
168.0352
70
8
0
VERTEX
8
2
10
118.1207
20
168.2832
70
8
0
VERTEX
8
2
10
118.167
20
168.5857
70
8
0
VERTEX
8
2
10
118.2094
20
168.9594
70
8
0
VERTEX
8
2
10
118.246
20
169.4209
70
8
0
VERTEX
8
2
10
118.2746
20
169.9871
70
8
0
VERTEX
8
2
10
118.2933
20
170.6746
70
8
0
VERTEX
8
2
10
118.3
20
171.5
70
8
0
SEQEND
8
2
0
LINE
8
4
62
7
10
102.5
20
159
11
102.5
21
146.7
0
LINE
8
4
62
7
10
104.8
20
146.7
11
104.8
21
151.7
0
LINE
8
4
62
7
10
107.3
20
154
11
107.3
21
159
0
LINE
8
4
62
7
10
120.3
20
154
11
107.3
21
154
0
LINE
8
4
62
7
10
104.8
20
151.7
11
120.3
21
151.7
0
LINE
8
4
62
7
10
102.5
20
146.7
11
104.8
21
146.7
0
CIRCLE
8
2
62
5
10
143.5
20
167
40
0.5
0
LINE
8
4
62
7
10
135.5
20
154
11
135.5
21
151.7
0
LINE
8
4
62
7
10
120.3
20
154
11
120.3
21
151.7
0
ARC
8
2
62
5
10
114.4013
20
181.5584
40
15.56247
50
253.8246
51
269.3624
0
ARC
8
2
62
5
10
114.2702
20
212.0205
40
47.33645
50
261.5326
51
271.4888
0
ARC
8
1
62
5
10
107.3
20
160.2
40
3
50
270
51
90
0
LINE
8
1
62
5
10
107.3
20
163.2
11
107.3
21
157.2
0
LINE
8
1
62
5
10
110.8355
20
163.7355
11
107.3
21
160.2
0
LINE
8
1
62
5
10
107.3
20
160.2
11
113.3
21
160.2
0
LINE
8
1
62
5
10
110.8355
20
156.6645
11
107.3
21
160.2
0
LINE
8
2
62
5
10
117.3
20
202
11
110.8
21
202
0
LINE
8
2
62
5
10
110.3
20
202
11
107.3
21
202
0
ARC
8
1
62
5
10
107.3
20
195
40
3
50
270
51
90
0
LINE
8
1
62
5
10
107.3
20
198
11
107.3
21
192
0
LINE
8
1
62
5
10
110.8355
20
198.5355
11
107.3
21
195
0
LINE
8
1
62
5
10
107.3
20
195
11
113.3
21
195
0
LINE
8
1
62
5
10
110.8355
20
191.4645
11
107.3
21
195
0
POLYLINE
8
2
62
5
70
4
75
6
66
1
40
0
41
0
0
VERTEX
8
2
10
115.5
20
190.7
70
16
0
VERTEX
8
2
10
115.8
20
190.7
70
16
0
VERTEX
8
2
10
116.8
20
190.2
70
16
0
VERTEX
8
2
10
117.1
20
189.9
70
16
0
VERTEX
8
2
10
117.7
20
188.7
70
16
0
VERTEX
8
2
10
118
20
187.8
70
16
0
VERTEX
8
2
10
118.3
20
186.3
70
16
0
VERTEX
8
2
10
118.3
20
171.5
70
16
0
VERTEX
8
2
10
115.5
20
190.7
70
8
0
VERTEX
8
2
10
115.6211
20
190.6889
70
8
0
VERTEX
8
2
10
115.7563
20
190.6582
70
8
0
VERTEX
8
2
10
115.9008
20
190.6117
70
8
0
VERTEX
8
2
10
116.05
20
190.5531
70
8
0
VERTEX
8
2
10
116.1992
20
190.4864
70
8
0
VERTEX
8
2
10
116.3438
20
190.4152
70
8
0
VERTEX
8
2
10
116.4789
20
190.3435
70
8
0
VERTEX
8
2
10
116.6
20
190.275
70
8
0
VERTEX
8
2
10
116.7036
20
190.2124
70
8
0
VERTEX
8
2
10
116.7914
20
190.1543
70
8
0
VERTEX
8
2
10
116.8663
20
190.0979
70
8
0
VERTEX
8
2
10
116.9312
20
190.0406
70
8
0
VERTEX
8
2
10
116.9892
20
189.9798
70
8
0
VERTEX
8
2
10
117.043
20
189.9129
70
8
0
VERTEX
8
2
10
117.0956
20
189.8372
70
8
0
VERTEX
8
2
10
117.15
20
189.75
70
8
0
VERTEX
8
2
10
117.2084
20
189.6496
70
8
0
VERTEX
8
2
10
117.2703
20
189.5375
70
8
0
VERTEX
8
2
10
117.3346
20
189.416
70
8
0
VERTEX
8
2
10
117.4
20
189.2875
70
8
0
VERTEX
8
2
10
117.4654
20
189.1543
70
8
0
VERTEX
8
2
10
117.5297
20
189.0187
70
8
0
VERTEX
8
2
10
117.5916
20
188.8832
70
8
0
VERTEX
8
2
10
117.65
20
188.75
70
8
0
VERTEX
8
2
10
117.7041
20
188.6206
70
8
0
VERTEX
8
2
10
117.7543
20
188.4926
70
8
0
VERTEX
8
2
10
117.8016
20
188.3628
70
8
0
VERTEX
8
2
10
117.8469
20
188.2281
70
8
0
VERTEX
8
2
10
117.891
20
188.0852
70
8
0
VERTEX
8
2
10
117.9348
20
187.9309
70
8
0
VERTEX
8
2
10
117.9792
20
187.7619
70
8
0
VERTEX
8
2
10
118.025
20
187.575
70
8
0
VERTEX
8
2
10
118.0727
20
187.3406
70
8
0
VERTEX
8
2
10
118.1207
20
186.923
70
8
0
VERTEX
8
2
10
118.167
20
186.1604
70
8
0
VERTEX
8
2
10
118.2094
20
184.8906
70
8
0
VERTEX
8
2
10
118.246
20
182.9517
70
8
0
VERTEX
8
2
10
118.2746
20
180.1816
70
8
0
VERTEX
8
2
10
118.2933
20
176.4184
70
8
0
VERTEX
8
2
10
118.3
20
171.5
70
8
0
SEQEND
8
2
0
POLYLINE
8
2
62
5
70
4
75
6
66
1
40
0
41
0
0
VERTEX
8
2
10
114.2281
20
189.4031
70
16
0
VERTEX
8
2
10
114.4772
20
189.4249
70
16
0
VERTEX
8
2
10
115.2461
20
189.2412
70
16
0
VERTEX
8
2
10
115.5169
20
189.014
70
16
0
VERTEX
8
2
10
116.1022
20
188.0613
70
16
0
VERTEX
8
2
10
116.4166
20
187.336
70
16
0
VERTEX
8
2
10
116.7746
20
186.1125
70
16
0
VERTEX
8
2
10
116.9751
20
183.8213
70
16
0
VERTEX
8
2
10
114.2281
20
189.4031
70
8
0
VERTEX
8
2
10
114.3273
20
189.4062
70
8
0
VERTEX
8
2
10
114.4359
20
189.4001
70
8
0
VERTEX
8
2
10
114.5505
20
189.3861
70
8
0
VERTEX
8
2
10
114.6679
20
189.3658
70
8
0
VERTEX
8
2
10
114.7848
20
189.3405
70
8
0
VERTEX
8
2
10
114.8978
20
189.3117
70
8
0
VERTEX
8
2
10
115.0036
20
189.2808
70
8
0
VERTEX
8
2
10
115.099
20
189.2493
70
8
0
VERTEX
8
2
10
115.1815
20
189.218
70
8
0
VERTEX
8
2
10
115.2526
20
189.1859
70
8
0
VERTEX
8
2
10
115.3145
20
189.1516
70
8
0
VERTEX
8
2
10
115.3697
20
189.1135
70
8
0
VERTEX
8
2
10
115.4204
20
189.0701
70
8
0
VERTEX
8
2
10
115.469
20
189.0199
70
8
0
VERTEX
8
2
10
115.5179
20
188.9614
70
8
0
VERTEX
8
2
10
115.5693
20
188.8931
70
8
0
VERTEX
8
2
10
115.6251
20
188.814
70
8
0
VERTEX
8
2
10
115.6846
20
188.7254
70
8
0
VERTEX
8
2
10
115.7468
20
188.6292
70
8
0
VERTEX
8
2
10
115.8105
20
188.5273
70
8
0
VERTEX
8
2
10
115.8745
20
188.4214
70
8
0
VERTEX
8
2
10
115.9376
20
188.3136
70
8
0
VERTEX
8
2
10
115.9989
20
188.2056
70
8
0
VERTEX
8
2
10
116.057
20
188.0992
70
8
0
VERTEX
8
2
10
116.1113
20
187.9957
70
8
0
VERTEX
8
2
10
116.1623
20
187.8931
70
8
0
VERTEX
8
2
10
116.211
20
187.7888
70
8
0
VERTEX
8
2
10
116.2584
20
187.6803
70
8
0
VERTEX
8
2
10
116.3054
20
187.5648
70
8
0
VERTEX
8
2
10
116.3529
20
187.4399
70
8
0
VERTEX
8
2
10
116.4021
20
187.3028
70
8
0
VERTEX
8
2
10
116.4537
20
187.151
70
8
0
VERTEX
8
2
10
116.5086
20
186.9794
70
8
0
VERTEX
8
2
10
116.5668
20
186.7729
70
8
0
VERTEX
8
2
10
116.6282
20
186.5141
70
8
0
VERTEX
8
2
10
116.6924
20
186.1853
70
8
0
VERTEX
8
2
10
116.7594
20
185.7692
70
8
0
VERTEX
8
2
10
116.829
20
185.2482
70
8
0
VERTEX
8
2
10
116.9009
20
184.6047
70
8
0
VERTEX
8
2
10
116.9751
20
183.8213
70
8
0
SEQEND
8
2
0
ARC
8
2
62
5
10
114.4013
20
173.8416
40
15.56247
50
90.63755
51
106.1754
0
POLYLINE
8
2
62
5
70
4
75
6
66
1
40
0
41
0
0
VERTEX
8
2
10
111.0333
20
178.2303
70
16
0
VERTEX
8
2
10
109.7445
20
178.6194
70
16
0
VERTEX
8
2
10
109.7445
20
178.6194
70
16
0
VERTEX
8
2
10
109.5702
20
180.6118
70
16
0
VERTEX
8
2
10
111.0333
20
178.2303
70
8
0
VERTEX
8
2
10
110.6076
20
178.3626
70
8
0
VERTEX
8
2
10
110.2855
20
178.4864
70
8
0
VERTEX
8
2
10
110.05
20
178.6295
70
8
0
VERTEX
8
2
10
109.8838
20
178.8198
70
8
0
VERTEX
8
2
10
109.7699
20
179.0853
70
8
0
VERTEX
8
2
10
109.6911
20
179.4539
70
8
0
VERTEX
8
2
10
109.6303
20
179.9534
70
8
0
VERTEX
8
2
10
109.5702
20
180.6118
70
8
0
SEQEND
8
2
0
ARC
8
2
62
5
10
112.7074
20
193.7024
40
15.56244
50
263.8245
51
279.3624
0
ARC
8
2
62
5
10
112.7074
20
161.6976
40
15.56244
50
80.63757
51
96.17552
0
POLYLINE
8
2
62
5
70
4
75
6
66
1
40
0
41
0
0
VERTEX
8
2
10
111.0333
20
177.1697
70
16
0
VERTEX
8
2
10
109.7445
20
176.7806
70
16
0
VERTEX
8
2
10
109.7445
20
176.7806
70
16
0
VERTEX
8
2
10
109.5702
20
174.7882
70
16
0
VERTEX
8
2
10
111.0333
20
177.1697
70
8
0
VERTEX
8
2
10
110.6076
20
177.0374
70
8
0
VERTEX
8
2
10
110.2855
20
176.9136
70
8
0
VERTEX
8
2
10
110.05
20
176.7705
70
8
0
VERTEX
8
2
10
109.8838
20
176.5802
70
8
0
VERTEX
8
2
10
109.7699
20
176.3147
70
8
0
VERTEX
8
2
10
109.6911
20
175.9461
70
8
0
VERTEX
8
2
10
109.6303
20
175.4466
70
8
0
VERTEX
8
2
10
109.5702
20
174.7882
70
8
0
SEQEND
8
2
0
POLYLINE
8
2
62
5
70
4
75
6
66
1
40
0
41
0
0
VERTEX
8
2
10
115.2391
20
177.0527
70
16
0
VERTEX
8
2
10
115.4882
20
177.031
70
16
0
VERTEX
8
2
10
116.2135
20
176.7165
70
16
0
VERTEX
8
2
10
116.4408
20
176.4457
70
16
0
VERTEX
8
2
10
116.8517
20
175.4059
70
16
0
VERTEX
8
2
10
117.0354
20
174.637
70
16
0
VERTEX
8
2
10
117.1755
20
173.3699
70
16
0
VERTEX
8
2
10
116.9751
20
171.5787
70
16
0
VERTEX
8
2
10
115.2391
20
177.0527
70
8
0
VERTEX
8
2
10
115.3373
20
177.0386
70
8
0
VERTEX
8
2
10
115.4432
20
177.0137
70
8
0
VERTEX
8
2
10
115.5537
20
176.98
70
8
0
VERTEX
8
2
10
115.6658
20
176.9396
70
8
0
VERTEX
8
2
10
115.7765
20
176.8944
70
8
0
VERTEX
8
2
10
115.8828
20
176.8464
70
8
0
VERTEX
8
2
10
115.9816
20
176.7976
70
8
0
VERTEX
8
2
10
116.0701
20
176.75
70
8
0
VERTEX
8
2
10
116.1459
20
176.7049
70
8
0
VERTEX
8
2
10
116.2103
20
176.6609
70
8
0
VERTEX
8
2
10
116.2653
20
176.6164
70
8
0
VERTEX
8
2
10
116.313
20
176.5693
70
8
0
VERTEX
8
2
10
116.3555
20
176.5177
70
8
0
VERTEX
8
2
10
116.3946
20
176.4599
70
8
0
VERTEX
8
2
10
116.4326
20
176.3938
70
8
0
VERTEX
8
2
10
116.4714
20
176.3175
70
8
0
VERTEX
8
2
10
116.5126
20
176.23
70
8
0
VERTEX
8
2
10
116.5558
20
176.1324
70
8
0
VERTEX
8
2
10
116.6004
20
176.0269
70
8
0
VERTEX
8
2
10
116.6453
20
175.9154
70
8
0
VERTEX
8
2
10
116.69
20
175.8001
70
8
0
VERTEX
8
2
10
116.7335
20
175.6829
70
8
0
VERTEX
8
2
10
116.775
20
175.5659
70
8
0
VERTEX
8
2
10
116.8139
20
175.4511
70
8
0
VERTEX
8
2
10
116.8493
20
175.3397
70
8
0
VERTEX
8
2
10
116.8817
20
175.2298
70
8
0
VERTEX
8
2
10
116.9116
20
175.1186
70
8
0
VERTEX
8
2
10
116.9394
20
175.0035
70
8
0
VERTEX
8
2
10
116.9656
20
174.8817
70
8
0
VERTEX
8
2
10
116.9908
20
174.7504
70
8
0
VERTEX
8
2
10
117.0153
20
174.6068
70
8
0
VERTEX
8
2
10
117.0398
20
174.4484
70
8
0
VERTEX
8
2
10
117.0641
20
174.2708
70
8
0
VERTEX
8
2
10
117.0856
20
174.0642
70
8
0
VERTEX
8
2
10
117.101
20
173.8172
70
8
0
VERTEX
8
2
10
117.1072
20
173.5184
70
8
0
VERTEX
8
2
10
117.101
20
173.1565
70
8
0
VERTEX
8
2
10
117.079
20
172.7202
70
8
0
VERTEX
8
2
10
117.0381
20
172.198
70
8
0
VERTEX
8
2
10
116.9751
20
171.5787
70
8
0
SEQEND
8
2
0
LINE
8
2
62
5
10
109.0385
20
169.2114
11
109.5702
21
174.7882
0
POLYLINE
8
2
62
5
70
4
75
6
66
1
40
0
41
0
0
VERTEX
8
2
10
110.0659
20
188.788
70
16
0
VERTEX
8
2
10
108.8642
20
188.181
70
16
0
VERTEX
8
2
10
108.8642
20
188.181
70
16
0
VERTEX
8
2
10
109.0385
20
186.1886
70
16
0
VERTEX
8
2
10
110.0659
20
188.788
70
8
0
VERTEX
8
2
10
109.6696
20
188.5837
70
8
0
VERTEX
8
2
10
109.3739
20
188.4059
70
8
0
VERTEX
8
2
10
109.1668
20
188.2241
70
8
0
VERTEX
8
2
10
109.0362
20
188.0078
70
8
0
VERTEX
8
2
10
108.9701
20
187.7266
70
8
0
VERTEX
8
2
10
108.9565
20
187.3499
70
8
0
VERTEX
8
2
10
108.9833
20
186.8474
70
8
0
VERTEX
8
2
10
109.0385
20
186.1886
70
8
0
SEQEND
8
2
0
LINE
8
2
62
5
10
109.0385
20
186.1886
11
109.5702
21
180.6118
0
POLYLINE
8
2
62
5
70
4
75
6
66
1
40
0
41
0
0
VERTEX
8
2
10
115.2391
20
178.3472
70
16
0
VERTEX
8
2
10
115.4882
20
178.369
70
16
0
VERTEX
8
2
10
116.2135
20
178.6835
70
16
0
VERTEX
8
2
10
116.4408
20
178.9543
70
16
0
VERTEX
8
2
10
116.8517
20
179.9941
70
16
0
VERTEX
8
2
10
117.0354
20
180.763
70
16
0
VERTEX
8
2
10
117.1755
20
181.53
70
16
0
VERTEX
8
2
10
116.9751
20
183.8213
70
16
0
VERTEX
8
2
10
115.2391
20
178.3472
70
8
0
VERTEX
8
2
10
115.3373
20
178.3614
70
8
0
VERTEX
8
2
10
115.4432
20
178.3863
70
8
0
VERTEX
8
2
10
115.5537
20
178.42
70
8
0
VERTEX
8
2
10
115.6658
20
178.4604
70
8
0
VERTEX
8
2
10
115.7765
20
178.5056
70
8
0
VERTEX
8
2
10
115.8828
20
178.5535
70
8
0
VERTEX
8
2
10
115.9816
20
178.6023
70
8
0
VERTEX
8
2
10
116.0701
20
178.65
70
8
0
VERTEX
8
2
10
116.1459
20
178.6951
70
8
0
VERTEX
8
2
10
116.2103
20
178.7391
70
8
0
VERTEX
8
2
10
116.2653
20
178.7836
70
8
0
VERTEX
8
2
10
116.313
20
178.8307
70
8
0
VERTEX
8
2
10
116.3555
20
178.8823
70
8
0
VERTEX
8
2
10
116.3946
20
178.9401
70
8
0
VERTEX
8
2
10
116.4326
20
179.0062
70
8
0
VERTEX
8
2
10
116.4714
20
179.0825
70
8
0
VERTEX
8
2
10
116.5126
20
179.17
70
8
0
VERTEX
8
2
10
116.5558
20
179.2676
70
8
0
VERTEX
8
2
10
116.6004
20
179.3731
70
8
0
VERTEX
8
2
10
116.6453
20
179.4846
70
8
0
VERTEX
8
2
10
116.69
20
179.5999
70
8
0
VERTEX
8
2
10
116.7335
20
179.7171
70
8
0
VERTEX
8
2
10
116.775
20
179.8341
70
8
0
VERTEX
8
2
10
116.8139
20
179.9489
70
8
0
VERTEX
8
2
10
116.8493
20
180.0601
70
8
0
VERTEX
8
2
10
116.8817
20
180.1683
70
8
0
VERTEX
8
2
10
116.9116
20
180.2748
70
8
0
VERTEX
8
2
10
116.9394
20
180.3808
70
8
0
VERTEX
8
2
10
116.9656
20
180.4878
70
8
0
VERTEX
8
2
10
116.9908
20
180.5969
70
8
0
VERTEX
8
2
10
117.0153
20
180.7094
70
8
0
VERTEX
8
2
10
117.0398
20
180.8266
70
8
0
VERTEX
8
2
10
117.0641
20
180.9532
70
8
0
VERTEX
8
2
10
117.0856
20
181.1073
70
8
0
VERTEX
8
2
10
117.101
20
181.3106
70
8
0
VERTEX
8
2
10
117.1072
20
181.5847
70
8
0
VERTEX
8
2
10
117.101
20
181.9512
70
8
0
VERTEX
8
2
10
117.079
20
182.4317
70
8
0
VERTEX
8
2
10
117.0381
20
183.0479
70
8
0
VERTEX
8
2
10
116.9751
20
183.8213
70
8
0
SEQEND
8
2
0
CIRCLE
8
2
62
5
10
110.7987
20
183.5309
40
0.5
0
CIRCLE
8
2
62
5
10
110.7987
20
171.8691
40
0.5
0
ARC
8
2
62
5
10
114.2702
20
143.3796
40
47.33639
50
88.51122
51
98.46743
0
LINE
8
1
62
5
10
185.8717
20
154.5091
11
191.0808
21
169.6374
0
LINE
8
4
62
7
10
158.8
20
146.6
11
158.8
21
170.3
0
LINE
8
4
62
7
10
156.5
20
170.3
11
156.5
21
154
0
LINE
8
2
62
5
10
156.5
20
154
11
156.5
21
170
0
LINE
8
2
62
5
10
155.5
20
169
11
155.5
21
155
0
LINE
8
1
62
5
10
161.1
20
166.4
11
161.1
21
198.4
0
LINE
8
1
62
5
10
177.1
20
198.4
11
177.1
21
166.4
0
LINE
8
1
62
5
10
163.1
20
168.4
11
163.1
21
196.4
0
LINE
8
1
62
5
10
201
20
149.3
11
185.8717
21
154.5091
0
LINE
8
1
62
5
10
199.7601
20
151.8422
11
201
21
149.3
0
LINE
8
1
62
5
10
188.4139
20
155.749
11
192.6463
21
168.0407
0
LINE
8
1
62
5
10
192.6463
20
168.0407
11
190.7552
21
168.6919
0
LINE
8
1
62
5
10
199.7601
20
151.8422
11
188.4139
21
155.749
0
LINE
8
1
62
5
10
188.4139
20
155.749
11
185.8717
21
154.5091
0
LINE
8
4
62
7
10
158.8
20
146.6
11
156.5
21
146.6
0
LINE
8
4
62
7
10
156.5
20
151.7
11
156.5
21
146.6
0
LINE
8
1
62
5
10
177.1
20
166.4
11
161.1
21
166.4
0
LINE
8
1
62
5
10
163.1
20
168.4
11
176.1
21
168.4
0
LINE
8
1
62
5
10
176.1
20
168.4
11
176.1
21
166.4
0
LINE
8
1
62
5
10
163.1
20
168.4
11
161.1
21
166.4
0
LINE
8
1
62
5
10
187.1
20
179.4
11
187.1
21
193.4
0
LINE
8
1
62
5
10
182.1
20
202.4
11
180.1
21
202.4
0
LINE
8
1
62
5
10
180.1
20
201.4
11
196.76
21
201.4
0
LINE
8
1
62
5
10
165.1
20
201.4
11
177.1
21
201.4
0
LINE
8
1
62
5
10
177.1
20
182.4
11
164.1
21
182.4
0
LINE
8
1
62
5
10
161.1
20
198.4
11
177.1
21
198.4
0
LINE
8
1
62
5
10
163.1
20
196.4
11
176.1
21
196.4
0
LINE
8
1
62
5
10
176.1
20
196.4
11
176.1
21
198.4
0
LINE
8
1
62
5
10
163.1
20
196.4
11
161.1
21
198.4
0
ARC
8
1
62
5
10
161.9563
20
158.625
40
16.91041
50
72.46912
51
86.29157
0
ARC
8
1
62
5
10
162.925
20
174.625
40
0.8838835
50
8.130102
51
81.8699
0
ARC
8
1
62
5
10
145.05
20
170.35
40
19.25935
50
358.2147
51
13.20645
0
ARC
8
1
62
5
10
167.55
20
163.4583
40
7.081495
50
83.92041
51
117.3189
0
ARC
8
1
62
5
10
163.1932
20
163.3968
40
8.812415
50
43.83387
51
56.55498
0
ARC
8
1
62
5
10
232.925
20
26.125
40
163.7419
50
112.8655
51
114.3933
0
ARC
8
1
62
5
10
158.3805
20
172.8819
40
11.67027
50
343.155
51
20.66329
0
LINE
8
2
62
5
10
140.5
20
206
11
156.5
21
206
0
LINE
8
2
62
5
10
142.5
20
205
11
154.5
21
205
0
LINE
8
4
62
7
10
193.8
20
227.3
11
151.5
21
227.3
0
LINE
8
4
62
7
10
151.5
20
220
11
156.5
21
220
0
LINE
8
5
62
7
10
105
20
236
11
105
21
243.5
0
LINE
8
4
62
1
10
121.3
20
220
11
151.5
21
220
0
LINE
8
4
62
1
10
122.55
20
227.3
11
150.25
21
227.3
0
LINE
8
4
62
1
10
122.55
20
224.9
11
150.25
21
224.9
0
LINE
8
4
62
7
10
107.3
20
220
11
121.3
21
220
0
ARC
8
2
62
5
10
142.375
20
204.125
40
0.8838835
50
81.8699
51
188.1301
0
LINE
8
2
62
5
10
117.3
20
210
11
110.8
21
210
0
LINE
8
2
62
5
10
112.3
20
209
11
117.3
21
209
0
LINE
8
2
62
5
10
112.3
20
203
11
117.3
21
203
0
ARC
8
2
62
5
10
117.3
20
206
40
3
50
270
51
90
0
LINE
8
2
62
5
10
107.3
20
210
11
110.3
21
210
0
LINE
8
2
62
5
10
112.3
20
203
11
112.3
21
209
0
CIRCLE
8
2
62
5
10
113.8
20
206
40
0.5
0
LINE
8
4
62
7
10
122.55
20
227.3
11
121.3
21
227.3
0
LINE
8
4
62
7
10
121.3
20
224.9
11
122.55
21
224.9
0
LINE
8
4
62
7
10
122.55
20
224.9
11
122.55
21
227.3
0
LINE
8
4
62
7
10
121.3
20
220
11
121.3
21
224.9
0
LINE
8
4
62
7
10
150.25
20
227.3
11
151.5
21
227.3
0
LINE
8
4
62
7
10
150.25
20
224.9
11
151.5
21
224.9
0
LINE
8
4
62
7
10
150.25
20
224.9
11
150.25
21
227.3
0
LINE
8
4
62
7
10
151.5
20
224.9
11
151.5
21
220
0
TEXT
8
5
62
7
10
140
20
264
40
5
1
14 m
41
0.5
7
txt
0
LINE
8
5
62
7
10
103.75
20
239.75
11
106.25
21
242.25
0
LINE
8
4
62
7
10
193.8
20
220
11
193.8
21
227.3
0
LINE
8
1
62
5
10
182.1
20
215.4
11
180.1
21
217.4
0
LINE
8
4
62
7
10
158.8
20
220
11
193.8
21
220
0
ARC
8
2
62
5
10
154.625
20
204.125
40
0.8838835
50
351.8699
51
98.1301
0
LINE
8
1
62
5
10
165.1
20
213.4
11
177.1
21
213.4
0
CIRCLE
8
1
62
5
10
168.2711
20
209.6596
40
6
0
LINE
8
1
62
5
10
169.6853
20
211.0738
11
172.5138
21
213.9022
0
LINE
8
1
62
5
10
166.8569
20
211.0738
11
164.0285
21
213.9022
0
LINE
8
1
62
5
10
168.2711
20
211.6596
11
168.2711
21
215.6596
0
CIRCLE
8
1
62
5
10
168.2711
20
209.6596
40
2
0
LINE
8
1
62
5
10
166.8569
20
208.2454
11
164.0285
21
205.4169
0
LINE
8
1
62
5
10
169.6853
20
208.2454
11
172.5138
21
205.4169
0
LINE
8
1
62
5
10
170.2711
20
209.6596
11
174.2711
21
209.6596
0
LINE
8
1
62
5
10
166.2711
20
209.6596
11
162.2711
21
209.6596
0
LINE
8
1
62
5
10
168.2711
20
207.6596
11
168.2711
21
203.6596
0
LINE
8
5
62
7
10
158
20
246
11
158
21
253.5
0
LINE
8
5
62
7
10
156.75
20
249.75
11
159.25
21
252.25
0
LINE
8
4
62
7
10
284
20
227.3
11
284
21
120
0
LINE
8
4
62
7
10
276.7
20
120
11
276.7
21
220
0
LINE
8
1
62
5
10
258.5
20
133.8
11
258.5
21
142.6
0
LINE
8
1
62
5
10
275.7
20
151
11
258.5
21
133.8
0
LINE
8
1
62
5
10
275.7
20
133.8
11
258.5
21
139.4
0
LINE
8
1
62
5
10
275.7
20
133.8
11
270.1
21
151
0
LINE
8
1
62
5
10
275.7
20
151
11
275.7
21
133.8
0
LINE
8
1
62
5
10
246.5363
20
133.8401
11
246.5363
21
139.8401
0
LINE
8
1
62
5
10
246.5363
20
139.8401
11
258.5363
21
133.8401
0
LINE
8
1
62
5
10
246.5363
20
133.8401
11
258.5363
21
139.8401
0
LINE
8
1
62
5
10
258.5363
20
139.8401
11
258.5363
21
133.8401
0
LINE
8
5
62
7
10
315
20
5.5
11
315
21
229.5
0
LINE
8
5
62
7
10
306.5
20
122
11
299
21
122
0
LINE
8
5
62
7
10
299
20
8
11
306.5
21
8
0
LINE
8
5
62
7
10
302.75
20
9.25
11
305.25
21
6.75
0
LINE
8
5
62
7
10
302.75
20
123.25
11
305.25
21
120.75
0
LINE
8
4
62
7
10
213.8
20
75.09998
11
213.8
21
63.19999
0
LINE
8
4
62
7
10
216.1
20
63.19999
11
216.1
21
67.69997
0
LINE
8
4
62
7
10
284
20
90
11
284
21
62.7
0
LINE
8
4
62
7
10
276.7
20
62.7
11
276.7
21
67.7
0
LINE
8
5
62
7
10
294
20
5.5
11
294
21
71.5
0
LINE
8
5
62
7
10
304
20
5.5
11
304
21
124.5
0
LINE
8
4
62
1
10
229.3
20
15
11
259.5
21
15
0
LINE
8
4
62
1
10
230.55
20
7.699997
11
258.25
21
7.699997
0
LINE
8
4
62
1
10
230.55
20
10.09999
11
258.25
21
10.09999
0
LINE
8
4
62
7
10
216.1
20
15
11
216.1
21
45.5
0
LINE
8
4
62
7
10
213.8
20
45.5
11
213.8
21
15
0
LINE
8
4
62
7
10
205.75
20
7.699997
11
207
21
7.699997
0
LINE
8
4
62
7
10
205.75
20
10.09999
11
207
21
10.09999
0
LINE
8
4
62
7
10
205.75
20
10.09999
11
205.75
21
7.699997
0
LINE
8
4
62
7
10
207
20
10.09999
11
207
21
15
0
LINE
8
4
62
7
10
230.55
20
7.699997
11
229.3
21
7.699997
0
LINE
8
4
62
7
10
229.3
20
10.09999
11
230.55
21
10.09999
0
LINE
8
4
62
7
10
230.55
20
10.09999
11
230.55
21
7.699997
0
LINE
8
4
62
7
10
229.3
20
15
11
229.3
21
10.09999
0
LINE
8
4
62
7
10
207
20
7.699997
11
229.3
21
7.699997
0
LINE
8
4
62
7
10
229.3
20
15
11
216.1
21
15
0
LINE
8
4
62
7
10
213.8
20
15
11
207
21
15
0
ARC
8
4
62
6
10
216.1
20
63.20001
40
17.7
50
270
51
6.832453e-07
0
LINE
8
4
62
6
10
216.1
20
63.20001
11
233.8
21
63.20001
0
LINE
8
4
62
7
10
216.1
20
45.5
11
213.8
21
45.5
0
LINE
8
4
62
7
10
216.1
20
63.20001
11
213.8
21
63.20001
0
TEXT
8
5
62
7
10
295
20
37
40
5
1
3 m
50
270
41
0.5
7
txt
0
LINE
8
4
62
7
10
284
20
62.5
11
284
21
7.699997
0
LINE
8
4
62
7
10
276.7
20
15
11
276.7
21
62.5
0
LINE
8
4
62
7
10
258.25
20
7.699997
11
259.5
21
7.699997
0
LINE
8
4
62
7
10
258.25
20
10.09999
11
259.5
21
10.09999
0
LINE
8
4
62
7
10
258.25
20
10.09999
11
258.25
21
7.699997
0
LINE
8
4
62
7
10
259.5
20
10.09999
11
259.5
21
15
0
LINE
8
4
62
7
10
284
20
7.699997
11
259.5
21
7.699997
0
LINE
8
4
62
7
10
259.5
20
15
11
276.7
21
15
0
LINE
8
5
62
7
10
289
20
8
11
296.5
21
8
0
LINE
8
5
62
7
10
292.75
20
9.25
11
295.25
21
6.75
0
LINE
8
1
62
5
10
258.5363
20
133.8401
11
246.5363
21
133.8401
0
LINE
8
4
62
7
10
276.7
20
67.7
11
224.2
21
67.7
0
LINE
8
4
62
7
10
224.2
20
70
11
276.7
21
70
0
LINE
8
1
62
5
10
240.9
20
79.10001
11
264.9
21
79.10001
0
LINE
8
1
62
5
10
240.9
20
71.10001
11
264.9
21
79.10001
0
LINE
8
1
62
5
10
240.9
20
79.10001
11
264.9
21
71.10001
0
LINE
8
1
62
5
10
264.9
20
71.10001
11
240.9
21
71.10001
0
LINE
8
1
62
5
10
251.9
20
96.8
11
275.9
21
96.8
0
LINE
8
1
62
5
10
275.9
20
112.8
11
251.9
21
112.8
0
LINE
8
4
62
7
10
216.1
20
92.8
11
216.1
21
123.8
0
LINE
8
4
62
7
10
213.8
20
121.5
11
213.8
21
92.8
0
ARC
8
1
62
5
10
242.4
20
101.3
40
1.5
50
180
51
270
0
LINE
8
1
62
5
10
249.9
20
99.8
11
249.9
21
108.8
0
LINE
8
1
62
5
10
251.9
20
112.8
11
251.9
21
96.8
0
LINE
8
4
62
7
10
216.1
20
69.99997
11
216.1
21
75.09998
0
LINE
8
4
62
7
10
216.1
20
67.69997
11
224.2
21
67.69997
0
LINE
8
4
62
7
10
224.2
20
69.99997
11
216.1
21
69.99997
0
LINE
8
1
62
5
10
249.9
20
99.8
11
242.4
21
99.8
0
LINE
8
1
62
5
10
240.9
20
71.10001
11
240.9
21
79.10001
0
ARC
8
4
62
6
10
216.1
20
75.09999
40
17.7
50
6.832453e-07
51
90
0
LINE
8
4
62
6
10
216.1
20
75.09999
11
233.8
21
75.09999
0
LINE
8
4
62
7
10
216.1
20
75.09999
11
213.8
21
75.09999
0
LINE
8
4
62
7
10
216.1
20
92.8
11
213.8
21
92.8
0
LINE
8
1
62
5
10
214.7
20
133.8
11
214.7
21
123.8
0
LINE
8
1
62
5
10
214.7
20
128.8
11
216.1
21
128.8
0
LINE
8
1
62
5
10
209.7
20
123.8
11
209.7
21
125.2
0
LINE
8
1
62
5
10
204.7
20
125.2
11
204.7
21
123.8
0
LINE
8
1
62
5
10
204.7
20
127
11
209.7
21
127
0
LINE
8
1
62
5
10
209.7
20
132
11
209.7
21
127
0
LINE
8
1
62
5
10
209.7
20
132
11
204.7
21
132
0
LINE
8
1
62
5
10
204.7
20
132
11
204.7
21
127
0
LINE
8
1
62
5
10
204.4
20
126.7
11
204.4
21
132.3
0
LINE
8
1
62
5
10
210
20
132.3
11
204.4
21
132.3
0
LINE
8
1
62
5
10
204.4
20
126.7
11
210
21
126.7
0
LINE
8
1
62
5
10
210
20
132.3
11
210
21
126.7
0
LINE
8
1
62
5
10
207.2
20
125.2
11
207.2
21
126.7
0
LINE
8
1
62
5
10
207.2
20
132.3
11
207.2
21
133.8
0
LINE
8
1
62
5
10
216.1
20
123.8
11
216.1
21
128.8
0
ARC
8
1
62
5
10
242.4
20
107.3
40
1.5
50
90
51
180
0
LINE
8
1
62
5
10
240.9
20
101.3
11
240.9
21
107.3
0
LINE
8
1
62
5
10
242.4
20
108.8
11
249.9
21
108.8
0
POLYLINE
8
4
62
7
70
1
66
1
40
0
41
0
0
VERTEX
8
4
10
205.8
20
113.5
0
VERTEX
8
4
10
205.8
20
121.5
0
VERTEX
8
4
10
213.8
20
121.5
0
VERTEX
8
4
10
213.8
20
113.5
0
SEQEND
8
4
0
CIRCLE
8
4
62
4
10
209.8
20
117.5
40
1.6
0
LINE
8
4
62
1
10
276.7
20
120
11
276.7
21
89.79999
0
LINE
8
4
62
1
10
284
20
118.75
11
284
21
91.04999
0
LINE
8
4
62
1
10
281.6
20
118.75
11
281.6
21
91.04999
0
LINE
8
1
62
5
10
275.9
20
96.8
11
275.9
21
112.8
0
LINE
8
4
62
7
10
276.7
20
70
11
276.7
21
90
0
LINE
8
1
62
5
10
264.9
20
79.10001
11
264.9
21
71.10001
0
LINE
8
4
62
7
10
284
20
91.04999
11
284
21
89.79999
0
LINE
8
4
62
7
10
281.6
20
91.04999
11
281.6
21
89.79999
0
LINE
8
4
62
7
10
281.6
20
91.04999
11
284
21
91.04999
0
LINE
8
4
62
7
10
281.6
20
89.79999
11
276.7
21
89.79999
0
LINE
8
1
62
5
10
263.4
20
88.3
11
263.4
21
95.8
0
LINE
8
1
62
5
10
254.4
20
95.8
11
254.4
21
88.3
0
LINE
8
1
62
5
10
273.4
20
88.3
11
273.4
21
95.8
0
LINE
8
1
62
5
10
264.4
20
95.8
11
264.4
21
88.3
0
ARC
8
1
62
5
10
255.9
20
88.3
40
1.5
50
180
51
270
0
ARC
8
1
62
5
10
261.9
20
88.3
40
1.5
50
270
51
0
0
LINE
8
1
62
5
10
255.9
20
86.8
11
261.9
21
86.8
0
ARC
8
1
62
5
10
265.9
20
88.3
40
1.5
50
180
51
270
0
ARC
8
1
62
5
10
271.9
20
88.3
40
1.5
50
270
51
0
0
LINE
8
1
62
5
10
265.9
20
86.8
11
271.9
21
86.8
0
LINE
8
1
62
5
10
254.4
20
95.8
11
263.4
21
95.8
0
LINE
8
1
62
5
10
264.4
20
95.8
11
273.4
21
95.8
0
LINE
8
5
62
7
10
292.75
20
70.25
11
295.25
21
67.75
0
LINE
8
5
62
7
10
296.5
20
69
11
289
21
69
0
LINE
8
1
62
5
10
275.7
20
133.8
11
258.5
21
133.8
0
LINE
8
4
62
7
10
284
20
118.75
11
284
21
120
0
LINE
8
4
62
7
10
281.6
20
120
11
281.6
21
118.75
0
LINE
8
4
62
7
10
281.6
20
118.75
11
284
21
118.75
0
LINE
8
4
62
7
10
276.7
20
120
11
281.6
21
120
0
LINE
8
1
62
5
10
263.4
20
121.3
11
263.4
21
113.8
0
LINE
8
1
62
5
10
254.4
20
113.8
11
254.4
21
121.3
0
LINE
8
1
62
5
10
273.4
20
121.3
11
273.4
21
113.8
0
LINE
8
1
62
5
10
264.4
20
113.8
11
264.4
21
121.3
0
LINE
8
1
62
5
10
254.4
20
113.8
11
263.4
21
113.8
0
LINE
8
1
62
5
10
264.4
20
113.8
11
273.4
21
113.8
0
ARC
8
1
62
5
10
255.9
20
121.3
40
1.5
50
90
51
180
0
ARC
8
1
62
5
10
261.9
20
121.3
40
1.5
50
0
51
90
0
LINE
8
1
62
5
10
255.9
20
122.8
11
261.9
21
122.8
0
ARC
8
1
62
5
10
265.9
20
121.3
40
1.5
50
90
51
180
0
ARC
8
1
62
5
10
271.9
20
121.3
40
1.5
50
0
51
90
0
LINE
8
1
62
5
10
265.9
20
122.8
11
271.9
21
122.8
0
TEXT
8
5
62
7
10
306
20
69
40
5
1
5.70 m
50
270
41
0.5
7
txt
0
LINE
8
5
62
7
10
310
20
8
11
317.5
21
8
0
LINE
8
5
62
7
10
313.75
20
9.25
11
316.25
21
6.75
0
TEXT
8
5
62
7
10
317
20
126
40
5
1
11 m
50
270
41
0.5
7
txt
0
LINE
8
1
62
5
10
211.44
20
201.4
11
211.44
21
214.4
0
LINE
8
1
62
5
10
228.1
20
217.4
11
228.1
21
201.4
0
LINE
8
1
62
5
10
226.1
20
215.4
11
226.1
21
202.4
0
LINE
8
1
62
5
10
275.7
20
203
11
275.7
21
185
0
LINE
8
1
62
5
10
270.1
20
185
11
270.1
21
203
0
LINE
8
1
62
5
10
270.1
20
203
11
275.7
21
185
0
LINE
8
1
62
5
10
275.7
20
203
11
270.1
21
185
0
LINE
8
1
62
5
10
266.9
20
203
11
266.9
21
185
0
LINE
8
1
62
5
10
246.5363
20
139.8401
11
258.5363
21
139.8401
0
LINE
8
1
62
5
10
203.9925
20
164.1339
11
205.8835
21
163.4828
0
ARC
8
1
62
1
10
214.6268
20
183.6127
40
5.584057
50
181.2384
51
237.7134
0
ARC
8
1
62
1
10
209.544
20
183.492
40
0.4999999
50
53.13009
51
180
0
ARC
8
1
62
1
10
205.8081
20
179.6151
40
5.880525
50
352.937
51
46.66079
0
ARC
8
1
62
1
10
208.6862
20
181.3821
40
3.866445
50
319.9075
51
44.49772
0
ARC
8
1
62
1
10
210.744
20
183.192
40
1.140175
50
52.12502
51
142.125
0
ARC
8
1
62
1
10
207.304
20
184.612
40
0.4999999
50
306.8699
51
73.7398
0
ARC
8
1
62
1
10
206.344
20
185.392
40
1.140175
50
344.7449
51
74.74488
0
ARC
8
1
62
1
10
205.976
20
183.8035
40
2.792028
50
299.3616
51
355.8366
0
ARC
8
1
62
1
10
208.511
20
183.6135
40
0.25
50
357.075
51
123.9449
0
ARC
8
1
62
1
10
210.2775
20
181.5823
40
2.940262
50
130.4142
51
184.138
0
ARC
8
1
62
1
10
208.8855
20
182.5381
40
1.933222
50
132.5773
51
217.1675
0
ARC
8
1
62
1
10
207.9041
20
183.4943
40
0.5700877
50
34.95
51
124.95
0
ARC
8
1
62
1
10
210.1764
20
186.5327
40
0.4999999
50
163
51
289.8699
0
ARC
8
1
62
1
10
215.0923
20
184.3369
40
5.880525
50
102.8069
51
156.5307
0
ARC
8
1
62
1
10
212.4522
20
186.4431
40
3.866445
50
69.77738
51
154.3676
0
ARC
8
1
62
1
10
210.0507
20
187.7632
40
1.140175
50
161.9949
51
251.9949
0
ARC
8
1
62
1
10
208.3353
20
191.2718
40
5.584057
50
291.1083
51
347.5833
0
ARC
8
1
62
1
10
211.5808
20
187.1998
40
2.792028
50
240.9032
51
297.3781
0
ARC
8
1
62
1
10
210.3494
20
184.9759
40
0.25
50
112.7949
51
239.6648
0
ARC
8
1
62
1
10
211.079
20
182.3846
40
2.940262
50
52.60177
51
106.3256
0
ARC
8
1
62
1
10
211.0432
20
184.0728
40
1.933222
50
19.57227
51
104.1625
0
ARC
8
1
62
1
10
210.7819
20
185.418
40
0.5700877
50
111.7898
51
201.7898
0
ARC
8
1
62
1
10
209.9963
20
189.0876
40
3.90884
50
175.4167
51
231.8917
0
ARC
8
1
62
1
10
207.794
20
186.292
40
0.3499999
50
233.1301
51
7.404541e-06
0
ARC
8
1
62
1
10
204.0539
20
185.8282
40
4.116367
50
6.46931
51
60.19311
0
ARC
8
1
62
1
10
206.2522
20
186.6978
40
2.706511
50
8.63238
51
93.22262
0
ARC
8
1
62
1
10
208.13
20
187.09
40
0.7981228
50
271.0051
51
1.005087
0
ARC
8
1
62
1
10
209.094
20
184.142
40
0.7905694
50
18.43495
51
108.4349
0
ARC
8
1
62
1
10
209.344
20
184.642
40
0.559017
50
153.435
51
333.4349
0
ARC
8
1
62
1
10
209.344
20
185.642
40
0.559017
50
206.5651
51
26.56505
0
ARC
8
1
62
1
10
209.594
20
185.642
40
0.7905694
50
108.4349
51
198.4349
0
LINE
8
1
62
1
10
209.344
20
186.392
11
209.844
21
185.892
0
ARC
8
1
62
1
10
208.344
20
185.167
40
0.5031153
50
333.4349
51
153.4349
0
ARC
8
1
62
1
10
208.569
20
185.167
40
0.7115125
50
161.5651
51
251.565
0
LINE
8
1
62
1
10
208.344
20
184.492
11
208.794
21
184.942
0
LINE
8
1
62
5
10
215.1
20
193.4
11
215.1
21
179.4
0
LINE
8
1
62
5
10
228.1
20
201.4
11
211.44
21
201.4
0
LINE
8
1
62
5
10
226.1
20
202.4
11
228.1
21
202.4
0
ARC
8
1
62
1
10
214.6268
20
183.6127
40
5.584057
50
181.2384
51
237.7134
0
ARC
8
1
62
1
10
209.544
20
183.492
40
0.4999999
50
53.13009
51
180
0
ARC
8
1
62
1
10
205.8081
20
179.6151
40
5.880525
50
352.937
51
46.66079
0
ARC
8
1
62
1
10
208.6862
20
181.3821
40
3.866445
50
319.9075
51
44.49772
0
ARC
8
1
62
1
10
210.744
20
183.192
40
1.140175
50
52.12502
51
142.125
0
ARC
8
1
62
1
10
207.304
20
184.612
40
0.4999999
50
306.8699
51
73.7398
0
ARC
8
1
62
1
10
206.344
20
185.392
40
1.140175
50
344.7449
51
74.74488
0
ARC
8
1
62
1
10
205.976
20
183.8035
40
2.792028
50
299.3616
51
355.8366
0
ARC
8
1
62
1
10
208.511
20
183.6135
40
0.25
50
357.075
51
123.9449
0
ARC
8
1
62
1
10
210.2775
20
181.5823
40
2.940262
50
130.4142
51
184.138
0
ARC
8
1
62
1
10
208.8855
20
182.5381
40
1.933222
50
132.5773
51
217.1675
0
ARC
8
1
62
1
10
207.9041
20
183.4943
40
0.5700877
50
34.95
51
124.95
0
ARC
8
1
62
1
10
210.1764
20
186.5327
40
0.4999999
50
163
51
289.8699
0
ARC
8
1
62
1
10
215.0923
20
184.3369
40
5.880525
50
102.8069
51
156.5307
0
ARC
8
1
62
1
10
212.4522
20
186.4431
40
3.866445
50
69.77738
51
154.3676
0
ARC
8
1
62
1
10
210.0507
20
187.7632
40
1.140175
50
161.9949
51
251.9949
0
ARC
8
1
62
1
10
208.3353
20
191.2718
40
5.584057
50
291.1083
51
347.5833
0
ARC
8
1
62
1
10
211.5808
20
187.1998
40
2.792028
50
240.9032
51
297.3781
0
ARC
8
1
62
1
10
210.3494
20
184.9759
40
0.25
50
112.7949
51
239.6648
0
ARC
8
1
62
1
10
211.079
20
182.3846
40
2.940262
50
52.60177
51
106.3256
0
ARC
8
1
62
1
10
211.0432
20
184.0728
40
1.933222
50
19.57227
51
104.1625
0
ARC
8
1
62
1
10
210.7819
20
185.418
40
0.5700877
50
111.7898
51
201.7898
0
ARC
8
1
62
1
10
209.9963
20
189.0876
40
3.90884
50
175.4167
51
231.8917
0
ARC
8
1
62
1
10
207.794
20
186.292
40
0.3499999
50
233.1301
51
7.404541e-06
0
ARC
8
1
62
1
10
204.0539
20
185.8282
40
4.116367
50
6.46931
51
60.19311
0
ARC
8
1
62
1
10
206.2522
20
186.6978
40
2.706511
50
8.63238
51
93.22262
0
ARC
8
1
62
1
10
208.13
20
187.09
40
0.7981228
50
271.0051
51
1.005087
0
ARC
8
1
62
1
10
209.094
20
184.142
40
0.7905694
50
18.43495
51
108.4349
0
ARC
8
1
62
1
10
209.344
20
184.642
40
0.559017
50
153.435
51
333.4349
0
ARC
8
1
62
1
10
209.344
20
185.642
40
0.559017
50
206.5651
51
26.56505
0
ARC
8
1
62
1
10
209.594
20
185.642
40
0.7905694
50
108.4349
51
198.4349
0
LINE
8
1
62
1
10
209.344
20
186.392
11
209.844
21
185.892
0
ARC
8
1
62
1
10
208.344
20
185.167
40
0.5031153
50
333.4349
51
153.4349
0
ARC
8
1
62
1
10
208.569
20
185.167
40
0.7115125
50
161.5651
51
251.565
0
LINE
8
1
62
1
10
208.344
20
184.492
11
208.794
21
184.942
0
LINE
8
1
62
5
10
275.7
20
185
11
275.7
21
167
0
LINE
8
1
62
5
10
270.1
20
167
11
270.1
21
185
0
LINE
8
1
62
5
10
270.1
20
185
11
275.7
21
167
0
LINE
8
1
62
5
10
275.7
20
185
11
270.1
21
167
0
LINE
8
1
62
5
10
266.9
20
185
11
266.9
21
167
0
LINE
8
1
62
5
10
275.7
20
151
11
266.9
21
151
0
ARC
8
1
62
5
10
258.1391
20
151.3609
40
11.96631
50
271.7281
51
358.2719
0
LINE
8
1
62
5
10
258.5
20
142.6
11
266.9
21
151
0
LINE
8
1
62
5
10
275.7
20
167
11
266.9
21
167
0
LINE
8
1
62
5
10
266.9
20
167
11
275.7
21
167
0
LINE
8
1
62
5
10
275.7
20
167
11
275.7
21
151
0
LINE
8
1
62
5
10
270.1
20
151
11
270.1
21
167
0
LINE
8
1
62
5
10
270.1
20
167
11
275.7
21
151
0
LINE
8
1
62
5
10
275.7
20
167
11
270.1
21
151
0
LINE
8
1
62
5
10
275.7
20
151
11
266.9
21
151
0
LINE
8
1
62
5
10
266.9
20
167
11
266.9
21
151
0
LINE
8
1
62
5
10
275.7
20
185
11
266.9
21
185
0
LINE
8
1
62
5
10
266.9
20
185
11
275.7
21
185
0
ARC
8
4
62
6
10
254.4
20
222.4332
40
17.5
50
180
51
270
0
LINE
8
1
62
5
10
226.1
20
215.4
11
228.1
21
217.4
0
ARC
8
1
62
5
10
224.2398
20
210.069
40
2.989382
50
71.26372
51
131.7294
0
ARC
8
1
62
5
10
220.8125
20
210.175
40
2.932709
50
52.4463
51
94.15522
0
ARC
8
1
62
5
10
220.0048
20
200.2727
40
7.081495
50
68.92041
51
85.59485
0
ARC
8
1
62
5
10
215.7805
20
201.3409
40
8.812415
50
28.83387
51
41.55498
0
ARC
8
1
62
5
10
213.5867
20
211.7484
40
11.67027
50
328.155
51
5.663294
0
ARC
8
1
62
5
10
212.8563
20
196.025
40
16.91041
50
72.46912
51
86.29157
0
ARC
8
1
62
5
10
213.825
20
212.025
40
0.8838835
50
8.130102
51
81.8699
0
ARC
8
1
62
5
10
195.95
20
207.75
40
19.25935
50
358.2147
51
13.20645
0
ARC
8
1
62
5
10
218.45
20
200.8583
40
7.081495
50
83.92041
51
117.3189
0
ARC
8
1
62
5
10
214.0932
20
200.7968
40
8.812415
50
43.83387
51
56.55498
0
ARC
8
1
62
5
10
283.825
20
63.525
40
163.7419
50
112.8655
51
114.3933
0
ARC
8
1
62
5
10
209.2805
20
210.2818
40
11.67027
50
343.155
51
20.66329
0
ARC
8
1
62
5
10
220.0048
20
200.2727
40
7.081495
50
90.03878
51
102.3189
0
ARC
8
1
62
5
10
200.0552
20
212.753
40
19.25935
50
343.2147
51
345.5545
0
LINE
8
4
62
6
10
254.4
20
222.4332
11
254.4
21
204.9332
0
LINE
8
4
62
7
10
254.5
20
220
11
254.5
21
227.3
0
LINE
8
4
62
7
10
254.4
20
222.4332
11
254.5
21
222.4332
0
LINE
8
4
62
7
10
276.7
20
220
11
254.5
21
220
0
LINE
8
4
62
7
10
254.5
20
227.3
11
284
21
227.3
0
LINE
8
1
62
5
10
266.9
20
219
11
275.7
21
219
0
LINE
8
1
62
5
10
275.7
20
219
11
275.7
21
203
0
LINE
8
1
62
5
10
270.1
20
203
11
270.1
21
219
0
LINE
8
1
62
5
10
270.1
20
219
11
275.7
21
203
0
LINE
8
1
62
5
10
275.7
20
219
11
270.1
21
203
0
LINE
8
1
62
5
10
275.7
20
203
11
266.9
21
203
0
LINE
8
1
62
5
10
266.9
20
219
11
266.9
21
203
0
LINE
8
1
62
5
10
266.9
20
203
11
275.7
21
203
0
LINE
8
5
62
7
10
284
20
257
11
284
21
264.5
0
LINE
8
5
62
7
10
282.75
20
260.75
11
285.25
21
263.25
0
LINE
8
5
62
7
10
406.1
20
225.8
11
406.1
21
178.9
0
LINE
8
5
62
7
10
327.5
20
181.2
11
327.5
21
227
0
LINE
8
5
62
7
10
406.1
20
178.9
11
327.5
21
178.9
0
TEXT
8
5
62
7
10
329.4
20
195.5667
40
5
1
Groundfloor 1 : 50
41
0.5
7
txt
0
LINE
8
5
62
7
10
327.5
20
181.2
11
327.5
21
179
0
LINE
8
5
62
7
10
327.5
20
227
11
406.1
21
227
0
LINE
8
5
62
7
10
327.5
20
205.4
11
405.8
21
205.4
0
TEXT
8
5
62
7
10
328.9
20
220.8
40
5
1
Drawn with AutoSketch
41
0.5
7
txt
0
TEXT
8
5
62
7
10
327.5
20
209.5
40
5
1
 by Mensch und Maschine GmbH
41
0.5
7
txt
0
LINE
8
5
62
7
10
313.75
20
228.25
11
316.25
21
225.75
0
LINE
8
5
62
7
10
317.5
20
227
11
310
21
227
0
ENDSEC
0
EOF
